<?xml version="1.0" encoding="utf-8"?><svg width="800" height="600.4140786749482" xmlns="http://www.w3.org/2000/svg" xmlns:xlink="http://www.w3.org/1999/xlink"><g><title>Layer 1</title><path stroke="rgba(0,0,0,0)" fill="rgb(255, 153, 0)" stroke-linejoin="null" stroke-linecap="null" stroke-opacity="null" fill-opacity="null" style="stroke:rgba(0,0,0,0);fill:rgb(255, 153, 0);" class="changeable" d="M72.83838,251.91377C72.83838,246.84477 77.01758,242.73978 82.17428,242.73978C87.33088,242.73978 91.50768,246.84477 91.50768,251.91377C91.50768,256.98178 87.33088,261.08679 82.17428,261.08679C77.01758,261.08679 72.83838,256.98178 72.83838,251.91377zM104.22227,277.88077L104.22227,273.24777C104.22227,268.37277 100.20328,264.42078 95.24058,264.42078L69.07718,264.42078C64.11648,264.42078 60.09547,268.37277 60.09547,273.24777L60.09547,277.88077C60.08607,277.98578 60.08137,278.09479 60.08137,278.20377L60.08137,304.88776C60.08137,306.96277 61.79078,308.64178 63.89927,308.64178C66.00777,308.64178 67.71947,306.96277 67.71947,304.88776L67.71947,278.59778L70.28138,278.59778L70.28138,308.64478L70.30028,308.64478L70.30028,351.09879C70.30028,353.85776 72.58108,356.10077 75.39078,356.10077C78.20518,356.10077 80.48367,353.86176 80.48367,351.09879L80.48367,308.64478L83.84118,308.64478L83.84118,351.09879C83.84118,353.85776 86.12437,356.10077 88.93417,356.10077C91.74618,356.10077 94.02467,353.86176 94.02467,351.09879L94.02467,308.64478L94.04118,308.64478L94.04118,278.59778L96.60297,278.59778L96.60297,304.88678C96.60297,306.95978 98.31428,308.64178 100.42328,308.64178C102.53128,308.64178 104.24128,306.95978 104.24128,304.88678L104.24128,278.20279C104.24128,278.09079 104.23128,277.98578 104.22227,277.88077L104.22227,277.88077z" id="svg_38" stroke-width="0" /><g id="svg_39" class=" changeable"><rect id="svg_42" x="279.5354" y="219.70677" width="100" height="18" fill="none" /><g display="inline" id="svg_40" class="TextBox" expand="1" empty="0" html="%3Cbody%3E%3Cp%20class%3D%22s0_lvl0_pf%22%3E%3Cspan%20class%3D%22s0_lvl0_cf%22%3E%3Cspan%20style%3D%22font-size%3A%2012pt%3B%22%3E%3Cspan%20style%3D%22font-size%3A%2010pt%3B%22%3E%3Cspan%20style%3D%22font-weight%3A%20bold%3B%22%3E%3Cspan%20style%3D%22font-size%3A%2012pt%3B%22%3E%3Cspan%20style%3D%22color%3A%20rgb%28255%2C%20153%2C%200%29%3B%22%3EMon%3C/span%3E%3C/span%3E%3C/span%3E%3C/span%3E%3C/span%3E%3C/span%3E%3C/p%3E%3C/body%3E"><rect id="svg_41" x="279.53541" y="219.70679" width="100" height="18" fill="none" style="fill:none;stroke:none;" /><rect id="svg_136" x="279.53541" y="220.15679" width="30" height="17" fill="transparent" /><text id="svg_141" font-size="16px" font-family="Arial,monospace" font-weight="700" text-anchor="start" xml:space="preserve" dominant-baseline="text-before-edge" font-style="normal" text-decoration="normal" fill="rgb(255, 153, 0)" x="279.53541" y="220.15679">Mon</text></g></g><g class=" changeable" id="svg_43"><rect x="283.55187" y="340.66478" width="92" height="37" fill="none" id="svg_44" /><g display="inline" class="TextBox" expand="1" empty="0" html="%3Cbody%3E%3Cp%20class%3D%22s0_lvl0_pf%22%3E%3Cspan%20class%3D%22s0_lvl0_cf%22%3E%3Cspan%20style%3D%22font-size%3A%2012pt%3B%22%3E%3Cspan%20style%3D%22font-size%3A%2010pt%3B%22%3E%3Cspan%20style%3D%22font-weight%3A%20bold%3B%22%3E%3Cspan%20style%3D%22font-size%3A%2012pt%3B%22%3E%3Cspan%20style%3D%22color%3A%20rgb%28153%2C%20204%2C%200%29%3B%22%3E%3Cspan%20style%3D%22font-size%3A%2011pt%3B%22%3E%3Cspan%20style%3D%22font-size%3A%2010pt%3B%22%3E%3Cspan%20style%3D%22font-size%3A%2012pt%3B%22%3EPartag%E9s%20avec%26nbsp%3B%20moi%3C/span%3E%3C/span%3E%3C/span%3E%3C/span%3E%3C/span%3E%3C/span%3E%3C/span%3E%3C/span%3E%3C/span%3E%3C/p%3E%3C/body%3E" id="svg_45"><rect x="283.55158" y="340.66478" width="92" height="37" fill="none" style="fill:none;stroke:none;" id="svg_46" /><rect id="svg_142" x="283.55158" y="341.11478" width="64" height="17" fill="transparent" /><text id="svg_143" font-size="16px" font-family="Arial,monospace" font-weight="700" text-anchor="start" xml:space="preserve" dominant-baseline="text-before-edge" font-style="normal" text-decoration="normal" fill="rgb(153, 204, 0)" x="283.55158" y="341.11478">Partagés</text><rect id="svg_144" x="283.55158" y="359.44812" width="38" height="17" fill="transparent" /><text id="svg_145" font-size="16px" font-family="Arial,monospace" font-weight="700" text-anchor="start" xml:space="preserve" dominant-baseline="text-before-edge" font-style="normal" text-decoration="normal" fill="rgb(153, 204, 0)" x="283.55158" y="359.44812">avec</text><rect id="svg_146" x="325.71826" y="359.44812" width="26" height="17" fill="transparent" /><text id="svg_147" font-size="16px" font-family="Arial,monospace" font-weight="700" text-anchor="start" xml:space="preserve" dominant-baseline="text-before-edge" font-style="normal" text-decoration="normal" fill="rgb(153, 204, 0)" x="325.71826" y="359.44812">moi</text></g></g><g class=" changeable" id="svg_51"><rect x="284.55842" y="465.82612" width="144" height="18" fill="none" id="svg_52" /><g display="inline" class="TextBox" expand="1" empty="0" html="%3Cbody%3E%3Cp%20class%3D%22s0_lvl0_pf%22%3E%3Cspan%20class%3D%22s0_lvl0_cf%22%3E%3Cspan%20style%3D%22font-size%3A%2012pt%3B%22%3E%3Cspan%20style%3D%22font-size%3A%2010pt%3B%22%3E%3Cspan%20style%3D%22font-weight%3A%20bold%3B%22%3E%3Cspan%20style%3D%22font-size%3A%2012pt%3B%22%3E%3Cspan%20style%3D%22color%3A%20rgb%28204%2C%20153%2C%20255%29%3B%22%3ECommun%3C/span%3E%3C/span%3E%3C/span%3E%3C/span%3E%3C/span%3E%3C/span%3E%3C/p%3E%3C/body%3E" id="svg_53"><rect x="284.55848" y="465.82642" width="144" height="18" fill="none" style="fill:none;stroke:none;" id="svg_54" /><rect id="svg_148" x="284.55848" y="466.27642" width="64" height="17" fill="transparent" /><text id="svg_149" font-size="16px" font-family="Arial,monospace" font-weight="700" text-anchor="start" xml:space="preserve" dominant-baseline="text-before-edge" font-style="normal" text-decoration="normal" fill="rgb(204, 153, 255)" x="284.55848" y="466.27642">Commun</text></g></g><path fill="rgb(0, 128, 128)" stroke-width="0" stroke-linejoin="null" stroke-linecap="null" stroke-opacity="null" fill-opacity="null" style="stroke:none;pointer-events:inherit;fill:rgb(0, 128, 128);" class="changeable" d="M585.66327,104.62968C589.52728,104.62968 592.66425,101.67858 592.66425,98.03878C592.66425,94.39658 589.52728,91.44458 585.66327,91.44458C581.79523,91.44458 578.65625,94.39658 578.65625,98.03878C578.65625,101.67858 581.79327,104.62968 585.66327,104.62968zM605.30023,133.05278L599.01727,111.11658C598.95825,110.91748 598.87524,110.72768 598.77625,110.55198C598.06128,108.49758 596.01227,107.00878 593.59222,107.00878L577.68628,107.00878C575.16327,107.00878 573.04327,108.62498 572.42023,110.81758C572.37823,110.91338 572.34222,111.01488 572.31024,111.11898L566.13928,133.05377C565.72827,134.49178 566.63428,135.96977 568.16528,136.35678C569.69324,136.74178 571.26324,135.88777 571.67328,134.44977L576.52228,117.21947L578.54126,117.21947L569.74323,148.39577L578.03326,148.39577L578.03326,169.91878C578.03326,171.57378 579.45728,172.91577 581.21826,172.91577C582.97528,172.91577 584.40125,171.57477 584.40125,169.91878L584.40125,148.39577L586.93524,148.39577L586.93524,169.91878C586.93524,171.57378 588.35925,172.91577 590.12225,172.91577C591.87927,172.91577 593.30524,171.57477 593.30524,169.91878L593.30524,148.39577L601.59027,148.39577L592.76025,117.21947L594.83228,117.21947L599.76923,134.44977C600.18127,135.88777 601.75128,136.74178 603.27826,136.35678C604.80328,135.96977 605.71124,134.49077 605.30023,133.05278L605.30023,133.05278z" id="svg_59" /><g class=" changeable" id="svg_68"><rect x="570.95151" y="183.0866" width="46.61644" height="20.3653" fill="none" id="svg_69" /><g display="inline" class="TextBox" expand="1" empty="0" html="%3Cbody%3E%3Cp%20class%3D%22s0_lvl0_pf%22%3E%3Cfont%20class%3D%22Apple-style-span%22%20size%3D%223%22%3E%3Cspan%20style%3D%22font-size%3A9pt%3B%22%3EJane%3C/span%3E%3C/font%3E%3C/p%3E%3C/body%3E" state="%7B%22bold%22%3Afalse%2C%22italic%22%3Afalse%2C%22underline%22%3Afalse%2C%22justifyleft%22%3Afalse%2C%22justifyright%22%3Afalse%2C%22justifycenter%22%3Afalse%2C%22justifyblock%22%3Afalse%2C%22font%22%3A%22Arial%22%2C%22size%22%3A%229pt%22%7D" id="svg_70"><rect x="570.95153" y="183.08661" width="46" height="100" fill="none" style="fill:none;stroke:none;" id="svg_71" /><rect id="svg_112" x="570.95153" y="183.08661" width="27" height="15" fill="rgba(0, 0, 0, 0)" /><text id="svg_113" font-size="12px" font-family="Arial, monospace" font-weight="normal" text-anchor="start" xml:space="preserve" dominant-baseline="text-before-edge" font-style="normal" text-decoration="normal" fill="rgb(0, 0, 0)" x="570.95153" y="183.08661">Jane</text></g></g><path fill="rgb(0, 51, 102)" stroke-linejoin="null" stroke-linecap="null" stroke-opacity="null" fill-opacity="null" style="stroke:none;pointer-events:inherit;fill:rgb(0, 51, 102);" class="changeable" d="M652.67584,203.92422C652.67584,200.19693 655.74878,197.17862 659.54041,197.17862C663.33203,197.17862 666.4032,200.19693 666.4032,203.92422C666.4032,207.6506 663.33203,210.66891 659.54041,210.66891C655.74878,210.66891 652.67584,207.6506 652.67584,203.92422zM675.75214,223.01776L675.75214,219.6113C675.75214,216.02649 672.7973,213.12079 669.14801,213.12079L649.91022,213.12079C646.2627,213.12079 643.30609,216.02649 643.30609,219.6113L643.30609,223.01776C643.29913,223.09454 643.29572,223.17474 643.29572,223.25494L643.29572,242.87576C643.29572,244.40109 644.55261,245.63556 646.10297,245.63556C647.65332,245.63556 648.91199,244.40109 648.91199,242.87576L648.91199,223.54498L650.79565,223.54498L650.79565,245.63812L650.80957,245.63812L650.80957,276.85446C650.80957,278.88315 652.48663,280.53226 654.55261,280.53226C656.62207,280.53226 658.29736,278.88568 658.29736,276.85446L658.29736,245.63812L660.76611,245.63812L660.76611,276.85446C660.76611,278.88315 662.44489,280.53226 664.51086,280.53226C666.57861,280.53226 668.25391,278.88568 668.25391,276.85446L668.25391,245.63812L668.26605,245.63812L668.26605,223.54498L670.14972,223.54498L670.14972,242.87488C670.14972,244.39938 671.40839,245.63556 672.95874,245.63556C674.50909,245.63556 675.76605,244.39938 675.76605,242.87488L675.76605,223.25412C675.76605,223.17218 675.75909,223.09454 675.75214,223.01776L675.75214,223.01776z" stroke-width="0" id="svg_74" /><g class=" changeable" id="svg_75"><rect x="639.21733" y="285.68884" width="63.23288" height="20.3653" fill="none" id="svg_76" /><g display="inline" class="TextBox" expand="1" empty="0" html="%3Cbody%3E%3Cp%20class%3D%22s0_lvl0_pf%22%3E%3Cspan%20class%3D%22s0_lvl0_cf%22%3E%3Cfont%20class%3D%22Apple-style-span%22%20size%3D%223%22%3E%3Cspan%20style%3D%22font-size%3A9pt%3B%22%3EMichael%3C/span%3E%3C/font%3E%3C/span%3E%3C/p%3E%3C/body%3E" state="%7B%22bold%22%3Afalse%2C%22italic%22%3Afalse%2C%22underline%22%3Afalse%2C%22justifyleft%22%3Afalse%2C%22justifyright%22%3Afalse%2C%22justifycenter%22%3Afalse%2C%22justifyblock%22%3Afalse%2C%22font%22%3A%22Arial%22%2C%22size%22%3A%229pt%22%7D" id="svg_77"><rect x="639.21732" y="285.68879" width="62" height="100" fill="none" style="fill:none;stroke:none;" id="svg_78" /><rect id="svg_114" x="639.21732" y="285.68879" width="42" height="15" fill="rgba(0, 0, 0, 0)" /><text id="svg_115" font-size="12px" font-family="Arial, monospace" font-weight="normal" text-anchor="start" xml:space="preserve" dominant-baseline="text-before-edge" font-style="normal" text-decoration="normal" fill="rgb(0, 0, 0)" x="639.21732" y="285.68879">Michael</text></g></g><rect fill="rgb(255, 153, 0)" stroke-width="0" stroke-linejoin="null" stroke-linecap="null" stroke-opacity="null" fill-opacity="null" style="stroke:none;pointer-events:inherit;fill:rgb(255, 153, 0);" class="changeable" x="280.26547" y="163.45121" width="79.6347" height="51.14155" id="svg_83" /><rect fill="rgb(255, 153, 0)" stroke-width="0" stroke-linejoin="null" stroke-linecap="null" stroke-opacity="null" fill-opacity="null" style="stroke:none;pointer-events:inherit;fill:rgb(255, 153, 0);" class="changeable" x="280.26547" y="151.76172" width="50.73516" height="17.85845" id="svg_84" /><rect fill="rgb(153, 204, 0)" stroke-width="0" stroke-linejoin="null" stroke-linecap="null" stroke-opacity="null" fill-opacity="null" style="stroke:none;pointer-events:inherit;fill:rgb(153, 204, 0);" class="changeable" x="282.77689" y="282.85761" width="79.6347" height="51.14155" id="svg_85" /><rect fill="rgb(153, 204, 0)" stroke-width="0" stroke-linejoin="null" stroke-linecap="null" stroke-opacity="null" fill-opacity="null" style="stroke:none;pointer-events:inherit;fill:rgb(153, 204, 0);" class="changeable" x="282.77689" y="271.16811" width="50.73516" height="17.85845" id="svg_86" /><rect fill="rgb(204, 153, 255)" stroke-width="0" stroke-linejoin="null" stroke-linecap="null" stroke-opacity="null" fill-opacity="null" style="stroke:none;pointer-events:inherit;fill:rgb(204, 153, 255);" class="changeable" x="284.23807" y="408.51971" width="79.6347" height="51.14155" id="svg_87" /><rect fill="rgb(204, 153, 255)" stroke-width="0" stroke-linejoin="null" stroke-linecap="null" stroke-opacity="null" fill-opacity="null" style="stroke:none;pointer-events:inherit;fill:rgb(204, 153, 255);" class="changeable" x="284.23807" y="396.83021" width="50.73516" height="17.85845" id="svg_88" /><path fill="rgb(51, 51, 153)" stroke-linejoin="null" stroke-linecap="null" stroke-opacity="null" fill-opacity="null" style="stroke:none;pointer-events:inherit;fill:rgb(51, 51, 153);" class="changeable" d="M655.36566,341.74838C655.36566,338.02109 658.4386,335.00278 662.23022,335.00278C666.02185,335.00278 669.09302,338.02109 669.09302,341.74838C669.09302,345.47476 666.02185,348.49307 662.23022,348.49307C658.4386,348.49307 655.36566,345.47476 655.36566,341.74838zM678.44196,360.84192L678.44196,357.43546C678.44196,353.85065 675.48712,350.94495 671.83783,350.94495L652.60004,350.94495C648.95251,350.94495 645.99591,353.85065 645.99591,357.43546L645.99591,360.84192C645.98895,360.9187 645.98553,360.9989 645.98553,361.0791L645.98553,380.69992C645.98553,382.22525 647.24243,383.45972 648.79279,383.45972C650.34314,383.45972 651.60181,382.22525 651.60181,380.69992L651.60181,361.36914L653.48547,361.36914L653.48547,383.46228L653.49939,383.46228L653.49939,414.67862C653.49939,416.70731 655.17645,418.35641 657.24243,418.35641C659.31189,418.35641 660.98718,416.70984 660.98718,414.67862L660.98718,383.46228L663.45593,383.46228L663.45593,414.67862C663.45593,416.70731 665.1347,418.35641 667.20068,418.35641C669.26843,418.35641 670.94373,416.70984 670.94373,414.67862L670.94373,383.46228L670.95587,383.46228L670.95587,361.36914L672.83954,361.36914L672.83954,380.69904C672.83954,382.22354 674.09821,383.45972 675.64856,383.45972C677.19891,383.45972 678.45587,382.22354 678.45587,380.69904L678.45587,361.07828C678.45587,360.99634 678.44891,360.9187 678.44196,360.84192L678.44196,360.84192z" stroke-width="0" id="svg_89" /><g class=" changeable" id="svg_90"><rect x="647.57363" y="423.46829" width="42.15982" height="20.3653" fill="none" id="svg_91" /><g display="inline" class="TextBox" expand="1" empty="0" html="%3Cbody%3E%3Cp%20class%3D%22s0_lvl0_pf%22%3E%3Cfont%20class%3D%22Apple-style-span%22%20size%3D%223%22%3E%3Cspan%20style%3D%22font-size%3A9pt%3B%22%3ETom%3C/span%3E%3C/font%3E%3C/p%3E%3C/body%3E" state="%7B%22bold%22%3Afalse%2C%22italic%22%3Afalse%2C%22underline%22%3Afalse%2C%22justifyleft%22%3Afalse%2C%22justifyright%22%3Afalse%2C%22justifycenter%22%3Afalse%2C%22justifyblock%22%3Afalse%2C%22font%22%3A%22Arial%22%2C%22size%22%3A%229pt%22%7D" id="svg_92"><rect x="647.57363" y="423.46835" width="42" height="100" fill="none" style="fill:none;stroke:none;" id="svg_93" /><rect id="svg_116" x="647.57363" y="423.46835" width="25" height="15" fill="rgba(0, 0, 0, 0)" /><text id="svg_117" font-size="12px" font-family="Arial, monospace" font-weight="normal" text-anchor="start" xml:space="preserve" dominant-baseline="text-before-edge" font-style="normal" text-decoration="normal" fill="rgb(0, 0, 0)" x="647.57363" y="423.46835">Tom</text></g></g><path fill="rgb(128, 0, 0)" stroke-width="0" stroke-linejoin="null" stroke-linecap="null" stroke-opacity="null" fill-opacity="null" style="stroke:none;pointer-events:inherit;fill:rgb(128, 0, 0);" class="changeable" d="M586.75824,429.60077C590.62225,429.60077 593.75928,426.64978 593.75928,423.00977C593.75928,419.36777 590.62225,416.41577 586.75824,416.41577C582.89026,416.41577 579.75128,419.36777 579.75128,423.00977C579.75128,426.64978 582.88824,429.60077 586.75824,429.60077zM606.39526,458.02377L600.11224,436.08777C600.05328,435.88876 599.97028,435.69876 599.87128,435.52277C599.15625,433.46878 597.10724,431.97977 594.68726,431.97977L578.78125,431.97977C576.25824,431.97977 574.13824,433.59576 573.51526,435.78876C573.47327,435.88376 573.43726,435.98578 573.40527,436.08978L567.23328,458.02478C566.82324,459.46277 567.72925,460.94077 569.25928,461.32776C570.78827,461.71277 572.35828,460.85876 572.76825,459.42078L577.61725,442.18976L579.63623,442.18976L570.83826,473.36578L579.12823,473.36578L579.12823,494.88876C579.12823,496.54477 580.55225,497.88577 582.31323,497.88577C584.07025,497.88577 585.49628,496.54578 585.49628,494.88876L585.49628,473.36578L588.03027,473.36578L588.03027,494.88876C588.03027,496.54477 589.45422,497.88577 591.21722,497.88577C592.97424,497.88577 594.40027,496.54578 594.40027,494.88876L594.40027,473.36578L602.68524,473.36578L593.85522,442.18976L595.92725,442.18976L600.86426,459.42078C601.27625,460.85876 602.84625,461.71277 604.37323,461.32776C605.89825,460.94077 606.80627,459.46176 606.39526,458.02377L606.39526,458.02377z" id="svg_96" /><g class=" changeable" id="svg_97"><rect x="569.07934" y="503.40633" width="57.50228" height="21.82648" fill="none" id="svg_98" /><g display="inline" class="TextBox" expand="1" empty="0" html="%3Cbody%3E%3Cp%20class%3D%22s0_lvl0_pf%22%3E%3Cspan%20style%3D%22font-size%3A9pt%3B%22%3ERachel%3C/span%3E%3C/p%3E%3C/body%3E" state="%7B%22bold%22%3Afalse%2C%22italic%22%3Afalse%2C%22underline%22%3Afalse%2C%22justifyleft%22%3Afalse%2C%22justifyright%22%3Afalse%2C%22justifycenter%22%3Afalse%2C%22justifyblock%22%3Afalse%2C%22font%22%3A%22Arial%22%2C%22size%22%3A%229pt%22%7D" id="svg_99"><rect x="569.07949" y="503.40633" width="57" height="100" fill="none" style="fill:none;stroke:none;" id="svg_100" /><rect id="svg_118" x="569.07949" y="503.40633" width="39" height="15" fill="rgba(0, 0, 0, 0)" /><text id="svg_119" font-size="12px" font-family="Arial, monospace" font-weight="normal" text-anchor="start" xml:space="preserve" dominant-baseline="text-before-edge" font-style="normal" text-decoration="normal" fill="rgb(0, 0, 0)" x="569.07949" y="503.40633">Rachel</text></g></g><g class=" changeable" id="svg_104"><rect x="148.59028" y="160.84843" width="120" height="72" fill="rgba(0, 0, 0, 0)" style="pointer-events:inherit;fill:rgba(0, 0, 0, 0);" id="svg_105" /><g display="inline" class="TextBox" expand="1" empty="0" html="%3Cbody%3E%3Cp%20class%3D%22s0_lvl0_pf%22%20style%3D%22text-align%3A%20right%3B%22%3E%3Cspan%20class%3D%22s0_lvl0_cf%22%3E%3Cfont%20class%3D%22Apple-style-span%22%20size%3D%222%22%3E%3Cspan%20style%3D%22color%3A%20rgb%2851%2C%20153%2C%20102%29%3B%22%3E%3Cspan%20style%3D%22color%3A%20rgb%28128%2C%200%2C%200%29%3B%22%3E%3Cspan%20style%3D%22font-size%3A%208pt%3B%22%3E%3Cspan%20style%3D%22color%3A%20rgb%28150%2C%20150%2C%20150%29%3B%22%3ECr%E9er%2C%20Modifier%3C/span%3E%3C/span%3E%3C/span%3E%3C/span%3E%3C/font%3E%3C/span%3E%3Cspan%20class%3D%22s0_lvl0_cf%22%3E%3Cspan%20style%3D%22font-size%3A%208pt%3B%22%3E%3Cspan%20style%3D%22color%3A%20rgb%28128%2C%200%2C%200%29%3B%22%3E%3Cspan%20style%3D%22color%3A%20rgb%28150%2C%20150%2C%20150%29%3B%22%3E%2C%20Importer%2C%20Charger%20et%20Partager%20vos%20fichiers%3C/span%3E%3C/span%3E%3C/span%3E%3C/span%3E%3C/p%3E%3Cp%20class%3D%22s0_lvl0_pf%22%3E%26nbsp%3B%3C/p%3E%3C/body%3E" id="svg_106"><rect x="148.58869" y="160.84844" width="120" height="72" fill="none" style="fill:none;stroke:none;" id="svg_107" /><rect id="svg_150" x="192.50536" y="160.84844" width="31" height="14" fill="transparent" /><text id="svg_151" font-size="10.6667px" font-family="Arial,monospace" font-weight="400" text-anchor="start" xml:space="preserve" dominant-baseline="text-before-edge" font-style="normal" text-decoration="normal" fill="rgb(150, 150, 150)" x="192.50536" y="160.84844">Créer,</text><rect id="svg_152" x="226.42202" y="160.84844" width="39" height="14" fill="transparent" /><text id="svg_153" font-size="10.6667px" font-family="Arial,monospace" font-weight="400" text-anchor="start" xml:space="preserve" dominant-baseline="text-before-edge" font-style="normal" text-decoration="normal" fill="rgb(150, 150, 150)" x="226.42202" y="160.84844">Modifier</text><rect id="svg_154" x="265.83869" y="160.84844" width="3" height="14" fill="transparent" /><text id="svg_155" font-size="10.6667px" font-family="Arial,monospace" font-weight="400" text-anchor="start" xml:space="preserve" dominant-baseline="text-before-edge" font-style="normal" text-decoration="normal" fill="rgb(150, 150, 150)" x="265.83869" y="160.84844">,</text><rect id="svg_160" x="167.75536" y="174.59844" width="45" height="14" fill="transparent" /><text id="svg_161" font-size="10.6667px" font-family="Arial,monospace" font-weight="400" text-anchor="start" xml:space="preserve" dominant-baseline="text-before-edge" font-style="normal" text-decoration="normal" fill="rgb(150, 150, 150)" x="167.75536" y="174.59844">Importer,</text><rect id="svg_166" x="215.42202" y="174.59844" width="41" height="14" fill="transparent" /><text id="svg_167" font-size="10.6667px" font-family="Arial,monospace" font-weight="400" text-anchor="start" xml:space="preserve" dominant-baseline="text-before-edge" font-style="normal" text-decoration="normal" fill="rgb(150, 150, 150)" x="215.42202" y="174.59844">Charger</text><rect id="svg_168" x="259.42202" y="174.59844" width="9" height="14" fill="transparent" /><text id="svg_169" font-size="10.6667px" font-family="Arial,monospace" font-weight="400" text-anchor="start" xml:space="preserve" dominant-baseline="text-before-edge" font-style="normal" text-decoration="normal" fill="rgb(150, 150, 150)" x="259.42202" y="174.59844">et</text><rect id="svg_170" x="165.92202" y="188.34844" width="43" height="14" fill="transparent" /><text id="svg_171" font-size="10.6667px" font-family="Arial,monospace" font-weight="400" text-anchor="start" xml:space="preserve" dominant-baseline="text-before-edge" font-style="normal" text-decoration="normal" fill="rgb(150, 150, 150)" x="165.92202" y="188.34844">Partager</text><rect id="svg_172" x="211.75536" y="188.34844" width="17" height="14" fill="transparent" /><text id="svg_173" font-size="10.6667px" font-family="Arial,monospace" font-weight="400" text-anchor="start" xml:space="preserve" dominant-baseline="text-before-edge" font-style="normal" text-decoration="normal" fill="rgb(150, 150, 150)" x="211.75536" y="188.34844">vos</text><rect id="svg_174" x="231.92202" y="188.34844" width="37" height="14" fill="transparent" /><text id="svg_175" font-size="10.6667px" font-family="Arial,monospace" font-weight="400" text-anchor="start" xml:space="preserve" dominant-baseline="text-before-edge" font-style="normal" text-decoration="normal" fill="rgb(150, 150, 150)" x="231.92202" y="188.34844">fichiers</text></g></g><g class=" changeable" id="svg_124"><rect x="152.9074" y="276.69715" width="120" height="72" fill="rgba(0, 0, 0, 0)" style="pointer-events:inherit;fill:rgba(0, 0, 0, 0);" id="svg_125" /><g display="inline" class="TextBox" expand="1" empty="0" html="%3Cbody%3E%3Cp%20class%3D%22s0_lvl0_pf%22%20style%3D%22text-align%3A%20right%3B%22%3E%3Cspan%20class%3D%22s0_lvl0_cf%22%3E%3Cspan%20style%3D%22font-size%3A%209pt%3B%22%3E%3Cspan%20style%3D%22font-size%3A%208pt%3B%22%3E%3Cspan%20style%3D%22color%3A%20rgb%28128%2C%200%2C%200%29%3B%22%3E%3Cspan%20style%3D%22color%3A%20rgb%28150%2C%20150%2C%20150%29%3B%22%3ELire%20et%20Modifier%20les%3C/span%3E%3C/span%3E%3C/span%3E%3C/span%3E%3C/span%3E%3Cspan%20class%3D%22s0_lvl0_cf%22%3E%3Cspan%20style%3D%22font-size%3A%208pt%3B%22%3E%3Cspan%20style%3D%22color%3A%20rgb%28128%2C%200%2C%200%29%3B%22%3E%3Cspan%20style%3D%22color%3A%20rgb%28150%2C%20150%2C%20150%29%3B%22%3E%20documents%20partag%E9s%20avec%20vous%3C/span%3E%3C/span%3E%3C/span%3E%3C/span%3E%3C/p%3E%3Cp%20class%3D%22s0_lvl0_pf%22%3E%26nbsp%3B%3C/p%3E%3C/body%3E" id="svg_126"><rect x="152.90575" y="276.69705" width="120" height="72" fill="none" style="fill:none;stroke:none;" id="svg_127" /><rect id="svg_176" x="181.23908" y="276.69705" width="19" height="14" fill="transparent" /><text id="svg_177" font-size="10.6667px" font-family="Arial,monospace" font-weight="400" text-anchor="start" xml:space="preserve" dominant-baseline="text-before-edge" font-style="normal" text-decoration="normal" fill="rgb(150, 150, 150)" x="181.23908" y="276.69705">Lire</text><rect id="svg_191" x="203.23908" y="276.69705" width="9" height="14" fill="transparent" /><text id="svg_194" font-size="10.6667px" font-family="Arial,monospace" font-weight="400" text-anchor="start" xml:space="preserve" dominant-baseline="text-before-edge" font-style="normal" text-decoration="normal" fill="rgb(150, 150, 150)" x="203.23908" y="276.69705">et</text><rect id="svg_212" x="215.15575" y="276.69705" width="39" height="14" fill="transparent" /><text id="svg_213" font-size="10.6667px" font-family="Arial,monospace" font-weight="400" text-anchor="start" xml:space="preserve" dominant-baseline="text-before-edge" font-style="normal" text-decoration="normal" fill="rgb(150, 150, 150)" x="215.15575" y="276.69705">Modifier</text><rect id="svg_214" x="257.32242" y="276.69705" width="16" height="14" fill="transparent" /><text id="svg_215" font-size="10.6667px" font-family="Arial,monospace" font-weight="400" text-anchor="start" xml:space="preserve" dominant-baseline="text-before-edge" font-style="normal" text-decoration="normal" fill="rgb(150, 150, 150)" x="257.32242" y="276.69705">les</text><rect id="svg_216" x="168.40575" y="290.44705" width="57" height="14" fill="transparent" /><text id="svg_217" font-size="10.6667px" font-family="Arial,monospace" font-weight="400" text-anchor="start" xml:space="preserve" dominant-baseline="text-before-edge" font-style="normal" text-decoration="normal" fill="rgb(150, 150, 150)" x="168.40575" y="290.44705">documents</text><rect id="svg_218" x="227.98908" y="290.44705" width="45" height="14" fill="transparent" /><text id="svg_219" font-size="10.6667px" font-family="Arial,monospace" font-weight="400" text-anchor="start" xml:space="preserve" dominant-baseline="text-before-edge" font-style="normal" text-decoration="normal" fill="rgb(150, 150, 150)" x="227.98908" y="290.44705">partagés</text><rect id="svg_220" x="223.40575" y="304.19705" width="23" height="14" fill="transparent" /><text id="svg_221" font-size="10.6667px" font-family="Arial,monospace" font-weight="400" text-anchor="start" xml:space="preserve" dominant-baseline="text-before-edge" font-style="normal" text-decoration="normal" fill="rgb(150, 150, 150)" x="223.40575" y="304.19705">avec</text><rect id="svg_222" x="249.07242" y="304.19705" width="24" height="14" fill="transparent" /><text id="svg_223" font-size="10.6667px" font-family="Arial,monospace" font-weight="400" text-anchor="start" xml:space="preserve" dominant-baseline="text-before-edge" font-style="normal" text-decoration="normal" fill="rgb(150, 150, 150)" x="249.07242" y="304.19705">vous</text></g></g><line fill="none" stroke="rgb(150, 150, 150)" stroke-linejoin="null" stroke-linecap="null" stroke-opacity="null" fill-opacity="null" style="stroke:rgb(150, 150, 150);" class="changeable" x1="543.27917" y1="167.83477" x2="388.90093" y2="274.53542" id="svg_137" stroke-dasharray="2,2" stroke-width="3" /><line style="stroke:rgb(150, 150, 150);" fill="none" stroke="rgb(150, 150, 150)" stroke-width="3" stroke-dasharray="2,2" stroke-linejoin="null" stroke-linecap="null" stroke-opacity="null" fill-opacity="null" class="changeable" x1="619.9915" y1="254.04482" x2="396.25146" y2="295.75024" id="svg_138" /><line style="stroke:rgb(150, 150, 150);" fill="none" stroke="rgb(150, 150, 150)" stroke-width="3" stroke-dasharray="2,2" stroke-linejoin="null" stroke-linecap="null" stroke-opacity="null" fill-opacity="null" class="changeable" x1="610.44919" y1="368.48042" x2="397.07126" y2="318.20326" id="svg_139" /><line style="stroke:rgb(150, 150, 150);" fill="none" stroke="rgb(150, 150, 150)" stroke-width="3" stroke-dasharray="2,2" stroke-linejoin="null" stroke-linecap="null" stroke-opacity="null" fill-opacity="null" class="changeable" x1="550.34234" y1="440.15106" x2="393.6831" y2="335.25779" id="svg_140" /><g id="svg_156" class=" changeable"><rect id="svg_157" x="66.36658" y="369.68504" width="53" height="18" fill="none" /><g id="svg_158" display="inline" class="TextBox" expand="1" empty="0" html="%3Cbody%3E%3Cp%20class%3D%22s0_lvl0_pf%22%3E%3Cspan%20style%3D%22font-size%3A%2012pt%3B%22%3EVous%3C/span%3E%3C/p%3E%3C/body%3E"><rect id="svg_159" x="66.36672" y="369.68504" width="53" height="18" fill="none" style="fill:none;stroke:none;" /><rect id="svg_224" x="66.36672" y="370.13504" width="34" height="17" fill="transparent" /><text id="svg_225" font-size="16px" font-family="Arial,monospace" font-weight="400" text-anchor="start" xml:space="preserve" dominant-baseline="text-before-edge" font-style="normal" text-decoration="normal" fill="rgb(0, 0, 0)" x="66.36672" y="370.13504">Vous</text></g></g><g id="svg_162" class=" changeable"><rect id="svg_163" x="144.90752" y="413.41297" width="129" height="55" fill="rgba(0, 0, 0, 0)" style="pointer-events:inherit;fill:rgba(0, 0, 0, 0);" /><g id="svg_164" display="inline" class="TextBox" expand="1" empty="0" html="%3Cbody%3E%3Cp%20class%3D%22s0_lvl0_pf%22%20style%3D%22text-align%3A%20right%3B%22%3E%3Cspan%20class%3D%22s0_lvl0_cf%22%3E%3Cspan%20style%3D%22font-size%3A%209pt%3B%22%3E%3Cspan%20style%3D%22font-size%3A%208pt%3B%22%3E%3Cspan%20style%3D%22color%3A%20rgb%28128%2C%200%2C%200%29%3B%22%3E%3Cspan%20style%3D%22color%3A%20rgb%28150%2C%20150%2C%20150%29%3B%22%3ELire%20et%20Modifier%20les%26nbsp%3B%3C/span%3E%3C/span%3E%3C/span%3E%3C/span%3E%3C/span%3E%3Cspan%20class%3D%22s0_lvl0_cf%22%3E%3Cspan%20style%3D%22font-size%3A%208pt%3B%22%3E%3Cspan%20style%3D%22color%3A%20rgb%28128%2C%200%2C%200%29%3B%22%3E%3Cspan%20style%3D%22color%3A%20rgb%28150%2C%20150%2C%20150%29%3B%22%3E%20%3C/span%3E%3C/span%3E%3C/span%3E%3C/span%3E%3Cspan%20class%3D%22s0_lvl0_cf%22%3E%3Cspan%20style%3D%22font-size%3A%208pt%3B%22%3E%3Cspan%20style%3D%22color%3A%20rgb%28128%2C%200%2C%200%29%3B%22%3E%3Cspan%20style%3D%22color%3A%20rgb%28150%2C%20150%2C%20150%29%3B%22%3Edocuments%20disponibles%20%3C/span%3E%3C/span%3E%3C/span%3E%3C/span%3E%3C/p%3E%3Cp%20class%3D%22s0_lvl0_pf%22%20style%3D%22text-align%3A%20right%3B%22%3E%3Cspan%20class%3D%22s0_lvl0_cf%22%3E%3Cspan%20style%3D%22font-size%3A%208pt%3B%22%3E%3Cspan%20style%3D%22color%3A%20rgb%28128%2C%200%2C%200%29%3B%22%3E%3Cspan%20style%3D%22color%3A%20rgb%28150%2C%20150%2C%20150%29%3B%22%3E%E0%20tous%20les%20utilisateurs%3C/span%3E%3C/span%3E%3C/span%3E%3C/span%3E%3C/p%3E%3Cp%20class%3D%22s0_lvl0_pf%22%20style%3D%22text-align%3A%20right%3B%22%3E%3Cspan%20class%3D%22s0_lvl0_cf%22%3E%3Cspan%20style%3D%22font-size%3A%208pt%3B%22%3E%3Cspan%20style%3D%22color%3A%20rgb%28150%2C%20150%2C%20150%29%3B%22%3EVoir%20nos%20exemples%3C/span%3E%3C/span%3E%3C/span%3E%3C/p%3E%3C/body%3E"><rect id="svg_165" x="144.90608" y="413.4129" width="129" height="55" fill="none" style="fill:none;stroke:none;" /><rect fill="transparent" height="14" width="19" y="413.4129" x="179.48941" /><text y="413.4129" x="179.48941" background="transparent" fill="rgb(150, 150, 150)" text-decoration="normal" font-style="normal" dominant-baseline="text-before-edge" xml:space="preserve" text-anchor="start" font-weight="400" font-family="Arial,monospace" font-size="10.6667px">Lire</text><rect fill="transparent" height="14" width="9" y="413.4129" x="201.48941" /><text y="413.4129" x="201.48941" background="transparent" fill="rgb(150, 150, 150)" text-decoration="normal" font-style="normal" dominant-baseline="text-before-edge" xml:space="preserve" text-anchor="start" font-weight="400" font-family="Arial,monospace" font-size="10.6667px">et</text><rect fill="transparent" height="14" width="39" y="413.4129" x="213.40608" /><text y="413.4129" x="213.40608" background="transparent" fill="rgb(150, 150, 150)" text-decoration="normal" font-style="normal" dominant-baseline="text-before-edge" xml:space="preserve" text-anchor="start" font-weight="400" font-family="Arial,monospace" font-size="10.6667px">Modifier</text><rect fill="transparent" height="14" width="18" y="413.4129" x="255.57275" /><text y="413.4129" x="255.57275" background="transparent" fill="rgb(150, 150, 150)" text-decoration="normal" font-style="normal" dominant-baseline="text-before-edge" xml:space="preserve" text-anchor="start" font-weight="400" font-family="Arial,monospace" font-size="10.6667px">les</text><rect fill="transparent" height="14" width="57" y="427.1629" x="154.73941" /><text y="427.1629" x="154.73941" background="transparent" fill="rgb(150, 150, 150)" text-decoration="normal" font-style="normal" dominant-baseline="text-before-edge" xml:space="preserve" text-anchor="start" font-weight="400" font-family="Arial,monospace" font-size="10.6667px">documents</text><rect fill="transparent" height="14" width="60" y="427.1629" x="214.32275" /><text y="427.1629" x="214.32275" background="transparent" fill="rgb(150, 150, 150)" text-decoration="normal" font-style="normal" dominant-baseline="text-before-edge" xml:space="preserve" text-anchor="start" font-weight="400" font-family="Arial,monospace" font-size="10.6667px">disponibles</text><rect fill="transparent" height="14" width="6" y="440.9129" x="165.73941" /><text y="440.9129" x="165.73941" background="transparent" fill="rgb(150, 150, 150)" text-decoration="normal" font-style="normal" dominant-baseline="text-before-edge" xml:space="preserve" text-anchor="start" font-weight="400" font-family="Arial,monospace" font-size="10.6667px">à</text><rect fill="transparent" height="14" width="22" y="440.9129" x="174.90608" /><text y="440.9129" x="174.90608" background="transparent" fill="rgb(150, 150, 150)" text-decoration="normal" font-style="normal" dominant-baseline="text-before-edge" xml:space="preserve" text-anchor="start" font-weight="400" font-family="Arial,monospace" font-size="10.6667px">tous</text><rect fill="transparent" height="14" width="16" y="440.9129" x="199.65608" /><text y="440.9129" x="199.65608" background="transparent" fill="rgb(150, 150, 150)" text-decoration="normal" font-style="normal" dominant-baseline="text-before-edge" xml:space="preserve" text-anchor="start" font-weight="400" font-family="Arial,monospace" font-size="10.6667px">les</text><rect fill="transparent" height="14" width="56" y="440.9129" x="217.98941" /><text y="440.9129" x="217.98941" background="transparent" fill="rgb(150, 150, 150)" text-decoration="normal" font-style="normal" dominant-baseline="text-before-edge" xml:space="preserve" text-anchor="start" font-weight="400" font-family="Arial,monospace" font-size="10.6667px">utilisateurs</text><rect fill="transparent" height="14" width="19" y="454.6629" x="180.40608" /><text y="454.6629" x="180.40608" background="transparent" fill="rgb(150, 150, 150)" text-decoration="normal" font-style="normal" dominant-baseline="text-before-edge" xml:space="preserve" text-anchor="start" font-weight="400" font-family="Arial,monospace" font-size="10.6667px">Voir</text><rect fill="transparent" height="14" width="19" y="454.6629" x="202.40608" /><text y="454.6629" x="202.40608" background="transparent" fill="rgb(150, 150, 150)" text-decoration="normal" font-style="normal" dominant-baseline="text-before-edge" xml:space="preserve" text-anchor="start" font-weight="400" font-family="Arial,monospace" font-size="10.6667px">nos</text><rect fill="transparent" height="14" width="50" y="454.6629" x="224.40608" /><text y="454.6629" x="224.40608" background="transparent" fill="rgb(150, 150, 150)" text-decoration="normal" font-style="normal" dominant-baseline="text-before-edge" xml:space="preserve" text-anchor="start" font-weight="400" font-family="Arial,monospace" font-size="10.6667px">exemples</text></g></g><line stroke-width="2" id="svg_178" y2="236.42349" x2="617.8029" y1="198.439" x1="372.84165" class="changeable" style="stroke:rgb(255, 153, 0);" fill-opacity="null" stroke-opacity="null" stroke-linecap="null" stroke-linejoin="null" stroke="rgb(255, 153, 0)" fill="none" /><path transform="rotate(-120.24, 617.493, 236.097)" id="svg_179" d="M611.875,241.716L611.875,230.478L623.112,241.716L611.875,241.716z" class="changeable" style="fill:rgb(255,153,0);stroke:rgba(0, 0, 0, 0);" fill-opacity="null" stroke-opacity="null" stroke-linecap="null" stroke-linejoin="null" stroke-width="2" stroke="rgba(0, 0, 0, 0)" fill="rgb(255,153,0)" /><path id="svg_180" transform="rotate(4.50606, 389.441, 274.27)" d="M383.81,279.901L383.81,268.64001L395.07199,279.901L383.81,279.901z" class="changeable" style="stroke:rgba(0,0,0,0);fill:rgb(128, 128, 128);" fill-opacity="null" stroke-opacity="null" stroke-linecap="null" stroke-linejoin="null" stroke-width="2" stroke="rgba(0,0,0,0)" fill="rgb(128, 128, 128)" /><path id="svg_181" transform="rotate(33.9217, 395.905, 295.463)" d="M390.27399,301.09399L390.27399,289.832L401.53601,301.09399L390.27399,301.09399z" class="changeable" style="stroke:rgba(0,0,0,0);fill:rgb(128, 128, 128);" fill-opacity="null" stroke-opacity="null" stroke-linecap="null" stroke-linejoin="null" stroke-width="2" stroke="rgba(0,0,0,0)" fill="rgb(128, 128, 128)" /><path id="svg_182" transform="rotate(62.7237, 396.376, 318.414)" d="M390.745,324.04501L390.745,312.78299L402.00699,324.04501L390.745,324.04501z" class="changeable" style="stroke:rgba(0,0,0,0);fill:rgb(128, 128, 128);" fill-opacity="null" stroke-opacity="null" stroke-linecap="null" stroke-linejoin="null" stroke-width="2" stroke="rgba(0,0,0,0)" fill="rgb(128, 128, 128)" /><path id="svg_183" transform="rotate(84.3983, 394.292, 336.114)" d="M388.66061,341.74454L388.66061,330.48352L399.92261,341.74454L388.66061,341.74454z" class="changeable" style="stroke:rgba(0,0,0,0);fill:rgb(128, 128, 128);" fill-opacity="null" stroke-opacity="null" stroke-linecap="null" stroke-linejoin="null" stroke-width="2" stroke="rgba(0,0,0,0)" fill="rgb(128, 128, 128)" /><line id="svg_184" stroke-width="2" y2="219.98162" x2="230.04322" y1="267.26845" x1="145.54708" class="changeable" style="stroke:rgb(255, 153, 0);" fill-opacity="null" stroke-opacity="null" stroke-linecap="null" stroke-linejoin="null" stroke="rgb(255, 153, 0)" fill="none" /><line id="svg_185" stroke-width="2" y2="365.55526" x2="150.03547" y1="401.21419" x1="247.70985" class="changeable" style="stroke:rgb(204, 153, 255);" fill-opacity="null" stroke-opacity="null" stroke-linecap="null" stroke-linejoin="null" stroke="rgb(204, 153, 255)" fill="none" /><line id="svg_186" stroke-width="2" y2="322.9196" x2="239.18275" y1="323.69479" x1="148.48507" class="changeable" style="stroke:rgb(153, 204, 0);" fill-opacity="null" stroke-opacity="null" stroke-linecap="null" stroke-linejoin="null" stroke="rgb(153, 204, 0)" fill="none" /><path id="svg_187" transform="rotate(-164.214, 229.24, 220.17)" d="M223.62199,225.789L223.62199,214.55099L234.85899,225.789L223.62199,225.789z" class="changeable" style="fill:rgb(255,153,0);stroke:rgba(0, 0, 0, 0);" fill-opacity="null" stroke-opacity="null" stroke-linecap="null" stroke-linejoin="null" stroke-width="2" stroke="rgba(0, 0, 0, 0)" fill="rgb(255,153,0)" /><path transform="rotate(8.48067, 146.717, 266.285)" id="svg_188" d="M141.099,271.90399L141.099,260.66699L152.336,271.90399L141.099,271.90399z" class="changeable" style="fill:rgb(255,153,0);stroke:rgba(0, 0, 0, 0);" fill-opacity="null" stroke-opacity="null" stroke-linecap="null" stroke-linejoin="null" stroke-width="2" stroke="rgba(0, 0, 0, 0)" fill="rgb(255,153,0)" /><path id="svg_189" transform="rotate(45, 150.423, 323.479)" d="M144.804,329.09698L144.804,317.85999L156.041,329.09698L144.804,329.09698z" class="changeable" style="stroke:rgba(0,0,0,0);fill:rgb(153, 204, 0);" fill-opacity="null" stroke-opacity="null" stroke-linecap="null" stroke-linejoin="null" stroke-width="2" stroke="rgba(0,0,0,0)" fill="rgb(153, 204, 0)" /><path transform="rotate(-135, 236.308, 323.318)" id="svg_190" d="M230.689,328.93701L230.689,317.69901L241.92599,328.93701L230.689,328.93701z" class="changeable" style="stroke:rgba(0,0,0,0);fill:rgb(153, 204, 0);" fill-opacity="null" stroke-opacity="null" stroke-linecap="null" stroke-linejoin="null" stroke-width="2" stroke="rgba(0,0,0,0)" fill="rgb(153, 204, 0)" /><path id="svg_192" transform="rotate(65.6412, 151.036, 365.954)" d="M145.418,371.57199L145.418,360.33499L156.655,371.57199L145.418,371.57199z" class="changeable" style="stroke:rgba(0,0,0,0);fill:rgb(204, 153, 255);" fill-opacity="null" stroke-opacity="null" stroke-linecap="null" stroke-linejoin="null" stroke-width="2" stroke="rgba(0,0,0,0)" fill="rgb(204, 153, 255)" /><path transform="rotate(-108.958, 245.714, 400.166)" id="svg_193" d="M240.095,405.784L240.095,394.547L251.33299,405.784L240.095,405.784z" class="changeable" style="stroke:rgba(0,0,0,0);fill:rgb(204, 153, 255);" fill-opacity="null" stroke-opacity="null" stroke-linecap="null" stroke-linejoin="null" stroke-width="2" stroke="rgba(0,0,0,0)" fill="rgb(204, 153, 255)" /><line id="svg_195" y2="435.6483" x2="436.40756" y1="435.6483" x1="375.16725" class="changeable" style="stroke:rgb(204, 153, 255);pointer-events:inherit;" fill-opacity="null" stroke-opacity="null" stroke-linecap="null" stroke-linejoin="null" stroke-dasharray="null" stroke-width="2" stroke="rgb(204, 153, 255)" fill="none" /><line id="svg_196" y2="538.7753" x2="434.85717" y1="435.6483" x1="434.85717" class="changeable" fill-opacity="null" stroke-opacity="null" stroke-linecap="null" stroke-linejoin="null" stroke-dasharray="null" stroke-width="2" stroke="rgb(204, 153, 255)" fill="none" /><line id="svg_197" y2="537.19869" x2="742.64425" y1="537.19869" x1="434.85717" class="changeable" fill-opacity="null" stroke-opacity="null" stroke-linecap="null" stroke-linejoin="null" stroke-dasharray="null" stroke-width="2" stroke="rgb(204, 153, 255)" fill="none" /><line id="svg_198" y2="126.7796" x2="741.83391" y1="536.42349" x1="741.83391" class="changeable" fill-opacity="null" stroke-opacity="null" stroke-linecap="null" stroke-linejoin="null" stroke-dasharray="null" stroke-width="2" stroke="rgb(204, 153, 255)" fill="none" /><line id="svg_199" y2="128.67156" x2="626.30647" y1="128.67156" x1="741.05872" class="changeable" fill-opacity="null" stroke-opacity="null" stroke-linecap="null" stroke-linejoin="null" stroke-dasharray="null" stroke-width="2" stroke="rgb(204, 153, 255)" fill="none" /><line stroke-width="2" id="svg_200" y2="238.11193" x2="691.52721" y1="238.11193" x1="741.97196" class="changeable" fill-opacity="null" stroke-opacity="null" stroke-linecap="null" stroke-linejoin="null" stroke-dasharray="null" stroke="rgb(204, 153, 255)" fill="none" /><line id="svg_201" y2="383.32272" x2="691.77676" y1="383.32272" x1="742.22151" class="changeable" fill-opacity="null" stroke-opacity="null" stroke-linecap="null" stroke-linejoin="null" stroke-dasharray="null" stroke-width="2" stroke="rgb(204, 153, 255)" fill="none" /><line id="svg_202" y2="467.04364" x2="619.68377" y1="467.04364" x1="741.44632" class="changeable" fill-opacity="null" stroke-opacity="null" stroke-linecap="null" stroke-linejoin="null" stroke-dasharray="null" stroke-width="2" stroke="rgb(204, 153, 255)" fill="none" /><path id="svg_203" transform="rotate(45, 379.855, 435.631)" d="M374.237,441.25L374.237,430.013L385.474,441.25L374.237,441.25z" class="changeable" style="stroke:rgba(0,0,0,0);fill:rgb(204, 153, 255);" fill-opacity="null" stroke-opacity="null" stroke-linecap="null" stroke-linejoin="null" stroke-width="2" stroke="rgba(0,0,0,0)" fill="rgb(204, 153, 255)" /><path id="svg_204" transform="rotate(45, 623.88, 467.253)" d="M618.26202,472.87201L618.26202,461.63501L629.49902,472.87201L618.26202,472.87201z" class="changeable" style="stroke:none;fill:rgb(204,153,255);pointer-events:inherit;" fill-opacity="null" stroke-opacity="null" stroke-linecap="null" stroke-linejoin="null" stroke-width="0" fill="rgb(204,153,255)" /><path id="svg_205" transform="rotate(45, 694.262, 383.371)" d="M688.64398,388.98999L688.64398,377.75201L699.88098,388.98999L688.64398,388.98999z" class="changeable" style="stroke:rgba(0,0,0,0);fill:rgb(204, 153, 255);" fill-opacity="null" stroke-opacity="null" stroke-linecap="null" stroke-linejoin="null" stroke-width="2" stroke="rgba(0,0,0,0)" fill="rgb(204, 153, 255)" /><path id="svg_206" transform="rotate(45, 695.651, 237.473)" d="M690.03302,243.092L690.03302,231.855L701.27002,243.092L690.03302,243.092z" class="changeable" style="stroke:rgba(0,0,0,0);fill:rgb(204, 153, 255);" fill-opacity="null" stroke-opacity="null" stroke-linecap="null" stroke-linejoin="null" stroke-width="2" stroke="rgba(0,0,0,0)" fill="rgb(204, 153, 255)" /><path id="svg_207" transform="rotate(45, 628.824, 128.784)" d="M623.20599,134.403L623.20599,123.166L634.44299,134.403L623.20599,134.403z" class="changeable" style="stroke:rgba(0,0,0,0);fill:rgb(204, 153, 255);" fill-opacity="null" stroke-opacity="null" stroke-linecap="null" stroke-linejoin="null" stroke-width="2" stroke="rgba(0,0,0,0)" fill="rgb(204, 153, 255)" /><g class=" changeable" id="svg_208"><rect fill="none" height="32" width="673" y="22.83112" x="75.80047" id="svg_211" /><g html="%3Cbody%3E%3Cp%20class%3D%22s0_lvl0_pf%22%3E%3Cspan%20class%3D%22s0_lvl0_cf%22%3E%3Cspan%20style%3D%22font-weight%3A%20bold%3B%22%3ER%E9alisez%20un%20travail%20cr%E9atif%20avec%20Teamlab%20Documents%3C/span%3E%3C/span%3E%3C/p%3E%3C/body%3E" empty="0" expand="1" class="TextBox" id="svg_209" display="inline"><rect style="fill:none;stroke:none;" fill="none" height="32" width="673" y="22.83113" x="75.80048" id="svg_210" /><rect id="svg_246" x="75.80048" y="23.28113" width="106" height="31" fill="transparent" /><text id="svg_247" font-size="26.6667px" font-family="Arial,monospace" font-weight="700" text-anchor="start" xml:space="preserve" dominant-baseline="text-before-edge" font-style="normal" text-decoration="normal" fill="rgb(0, 0, 0)" x="75.80048" y="23.28113">Réalisez</text><rect id="svg_248" x="189.46715" y="23.28113" width="33" height="31" fill="transparent" /><text id="svg_249" font-size="26.6667px" font-family="Arial,monospace" font-weight="700" text-anchor="start" xml:space="preserve" dominant-baseline="text-before-edge" font-style="normal" text-decoration="normal" fill="rgb(0, 0, 0)" x="189.46715" y="23.28113">un</text><rect id="svg_250" x="229.80048" y="23.28113" width="79" height="31" fill="transparent" /><text id="svg_251" font-size="26.6667px" font-family="Arial,monospace" font-weight="700" text-anchor="start" xml:space="preserve" dominant-baseline="text-before-edge" font-style="normal" text-decoration="normal" fill="rgb(0, 0, 0)" x="229.80048" y="23.28113">travail</text><rect id="svg_252" x="315.96715" y="23.28113" width="80" height="31" fill="transparent" /><text id="svg_253" font-size="26.6667px" font-family="Arial,monospace" font-weight="700" text-anchor="start" xml:space="preserve" dominant-baseline="text-before-edge" font-style="normal" text-decoration="normal" fill="rgb(0, 0, 0)" x="315.96715" y="23.28113">créatif</text><rect id="svg_254" x="403.05048" y="23.28113" width="60" height="31" fill="transparent" /><text id="svg_255" font-size="26.6667px" font-family="Arial,monospace" font-weight="700" text-anchor="start" xml:space="preserve" dominant-baseline="text-before-edge" font-style="normal" text-decoration="normal" fill="rgb(0, 0, 0)" x="403.05048" y="23.28113">avec</text><rect id="svg_256" x="469.96717" y="23.28113" width="108" height="31" fill="transparent" /><text id="svg_257" font-size="26.6667px" font-family="Arial,monospace" font-weight="700" text-anchor="start" xml:space="preserve" dominant-baseline="text-before-edge" font-style="normal" text-decoration="normal" fill="rgb(0, 0, 0)" x="469.96717" y="23.28113">Teamlab</text><rect id="svg_258" x="585.46717" y="23.28113" width="146" height="31" fill="transparent" /><text id="svg_259" font-size="26.6667px" font-family="Arial,monospace" font-weight="700" text-anchor="start" xml:space="preserve" dominant-baseline="text-before-edge" font-style="normal" text-decoration="normal" fill="rgb(0, 0, 0)" x="585.46717" y="23.28113">Documents</text></g></g></g></svg>