<?xml version="1.0" encoding="utf-8"?><svg width="800" height="600.4140786749482" xmlns="http://www.w3.org/2000/svg" xmlns:xlink="http://www.w3.org/1999/xlink"><g><title>Layer 1</title><path stroke-width="0" id="svg_38" d="M72.83838,251.91377C72.83838,246.84477 77.01758,242.73978 82.17428,242.73978C87.33088,242.73978 91.50768,246.84477 91.50768,251.91377C91.50768,256.98178 87.33088,261.08679 82.17428,261.08679C77.01758,261.08679 72.83838,256.98178 72.83838,251.91377zM104.22227,277.88077L104.22227,273.24777C104.22227,268.37277 100.20328,264.42078 95.24058,264.42078L69.07718,264.42078C64.11648,264.42078 60.09547,268.37277 60.09547,273.24777L60.09547,277.88077C60.08607,277.98578 60.08137,278.09479 60.08137,278.20377L60.08137,304.88776C60.08137,306.96277 61.79078,308.64178 63.89927,308.64178C66.00777,308.64178 67.71947,306.96277 67.71947,304.88776L67.71947,278.59778L70.28138,278.59778L70.28138,308.64478L70.30028,308.64478L70.30028,351.09879C70.30028,353.85776 72.58108,356.10077 75.39078,356.10077C78.20518,356.10077 80.48367,353.86176 80.48367,351.09879L80.48367,308.64478L83.84118,308.64478L83.84118,351.09879C83.84118,353.85776 86.12437,356.10077 88.93417,356.10077C91.74618,356.10077 94.02467,353.86176 94.02467,351.09879L94.02467,308.64478L94.04118,308.64478L94.04118,278.59778L96.60297,278.59778L96.60297,304.88678C96.60297,306.95978 98.31428,308.64178 100.42328,308.64178C102.53128,308.64178 104.24128,306.95978 104.24128,304.88678L104.24128,278.20279C104.24128,278.09079 104.23128,277.98578 104.22227,277.88077L104.22227,277.88077z" class="changeable" style="stroke:rgba(0,0,0,0);fill:rgb(255, 153, 0);" fill-opacity="null" stroke-opacity="null" stroke-linecap="null" stroke-linejoin="null" fill="rgb(255, 153, 0)" stroke="rgba(0,0,0,0)" /><g class=" changeable" id="svg_39"><rect fill="none" height="100" width="100" y="219.70677" x="279.5354" id="svg_42" /><g state="%7B%22bold%22%3Atrue%2C%22italic%22%3Afalse%2C%22underline%22%3Afalse%2C%22justifyleft%22%3Afalse%2C%22justifyright%22%3Afalse%2C%22justifycenter%22%3Afalse%2C%22justifyblock%22%3Afalse%2C%22font%22%3A%22Arial%22%2C%22size%22%3A%2212pt%22%7D" html="%3Cbody%3E%3Cp%20class%3D%22s0_lvl0_pf%22%3E%3Cspan%20class%3D%22s0_lvl0_cf%22%3E%3Cspan%20style%3D%22font-size%3A12pt%3B%22%3E%3Cspan%20style%3D%22font-size%3A10pt%3B%22%3E%3Cspan%20style%3D%22font-weight%3Abold%3B%22%3E%3Cspan%20style%3D%22font-size%3A12pt%3B%22%3E%3Cspan%20style%3D%22color%3Argb%28255%2C153%2C0%29%3B%22%3EMy%3C/span%3E%3C/span%3E%3C/span%3E%3C/span%3E%3C/span%3E%3C/span%3E%3C/p%3E%3C/body%3E" empty="0" expand="1" class="TextBox" id="svg_40" display="inline"><rect style="fill:none;stroke:none;" fill="none" height="100" width="100" y="219.70679" x="279.53541" id="svg_41" /><rect id="svg_110" x="279.53541" y="219.70679" width="22" height="19" fill="rgba(0, 0, 0, 0)" /><text id="svg_111" font-size="16px" font-family="Arial, monospace" font-weight="bold" text-anchor="start" xml:space="preserve" dominant-baseline="text-before-edge" font-style="normal" text-decoration="normal" fill="rgb(255, 153, 0)" x="279.53541" y="219.70679">My</text></g></g><g id="svg_43" class=" changeable"><rect id="svg_44" fill="none" height="18" width="118" y="340.66478" x="283.55277" /><g id="svg_45" html="%3Cbody%3E%3Cp%20class%3D%22s0_lvl0_pf%22%3E%3Cspan%20class%3D%22s0_lvl0_cf%22%3E%3Cspan%20style%3D%22font-size%3A%2012pt%3B%22%3E%3Cspan%20style%3D%22font-size%3A%2010pt%3B%22%3E%3Cspan%20style%3D%22font-weight%3A%20bold%3B%22%3E%3Cspan%20style%3D%22font-size%3A%2012pt%3B%22%3E%3Cspan%20style%3D%22color%3A%20rgb%28153%2C%20204%2C%200%29%3B%22%3EShared%3C/span%3E%3C/span%3E%3C/span%3E%3C/span%3E%3C/span%3E%3C/span%3E%3Cspan%20class%3D%22s0_lvl0_cf%22%3E%3Cspan%20style%3D%22font-size%3A%2010pt%3B%22%3E%3Cspan%20style%3D%22font-weight%3A%20bold%3B%22%3E%3Cspan%20style%3D%22font-size%3A%2012pt%3B%22%3E%3Cspan%20style%3D%22color%3A%20rgb%28153%2C%20204%2C%200%29%3B%22%3E%20with%20me%3C/span%3E%3C/span%3E%3C/span%3E%3C/span%3E%3C/span%3E%3C/p%3E%3C/body%3E" empty="0" expand="1" class="TextBox" display="inline"><rect id="svg_46" style="fill:none;stroke:none;" fill="none" height="18" width="118" y="340.66478" x="283.55237" /><rect id="svg_108" x="283.55237" y="341.11478" width="51" height="17" fill="transparent" /><text id="svg_109" font-size="16px" font-family="Arial,monospace" font-weight="700" text-anchor="start" xml:space="preserve" dominant-baseline="text-before-edge" font-style="normal" text-decoration="normal" fill="rgb(153, 204, 0)" x="283.55237" y="341.11478">Shared</text><rect id="svg_120" x="339.46904" y="341.11478" width="30" height="17" fill="transparent" /><text id="svg_121" font-size="16px" font-family="Arial,monospace" font-weight="700" text-anchor="start" xml:space="preserve" dominant-baseline="text-before-edge" font-style="normal" text-decoration="normal" fill="rgb(153, 204, 0)" x="339.46904" y="341.11478">with</text><rect id="svg_122" x="374.30237" y="341.11478" width="21" height="17" fill="transparent" /><text id="svg_123" font-size="16px" font-family="Arial,monospace" font-weight="700" text-anchor="start" xml:space="preserve" dominant-baseline="text-before-edge" font-style="normal" text-decoration="normal" fill="rgb(153, 204, 0)" x="374.30237" y="341.11478">me</text></g></g><g id="svg_51" class=" changeable"><rect id="svg_52" fill="none" height="100" width="144" y="465.82612" x="284.55842" /><g id="svg_53" state="%7B%22bold%22%3Atrue%2C%22italic%22%3Afalse%2C%22underline%22%3Afalse%2C%22justifyleft%22%3Afalse%2C%22justifyright%22%3Afalse%2C%22justifycenter%22%3Afalse%2C%22justifyblock%22%3Afalse%2C%22font%22%3A%22Arial%22%2C%22size%22%3A%2212pt%22%7D" html="%3Cbody%3E%3Cp%20class%3D%22s0_lvl0_pf%22%3E%3Cspan%20class%3D%22s0_lvl0_cf%22%3E%3Cspan%20style%3D%22font-size%3A12pt%3B%22%3E%3Cspan%20style%3D%22font-size%3A10pt%3B%22%3E%3Cspan%20style%3D%22font-weight%3Abold%3B%22%3E%3Cspan%20style%3D%22font-size%3A12pt%3B%22%3E%3Cspan%20style%3D%22color%3Argb%28204%2C153%2C255%29%3B%22%3ECommon%3C/span%3E%3C/span%3E%3C/span%3E%3C/span%3E%3C/span%3E%3C/span%3E%3C/p%3E%3C/body%3E" empty="0" expand="1" class="TextBox" display="inline"><rect id="svg_54" style="fill:none;stroke:none;" fill="none" height="100" width="144" y="465.82642" x="284.55848" /><rect id="svg_130" x="284.55848" y="465.82642" width="70" height="19" fill="rgba(0, 0, 0, 0)" /><text id="svg_131" font-size="16px" font-family="Arial, monospace" font-weight="bold" text-anchor="start" xml:space="preserve" dominant-baseline="text-before-edge" font-style="normal" text-decoration="normal" fill="rgb(204, 153, 255)" x="284.55848" y="465.82642">Common</text></g></g><path id="svg_59" d="M585.66327,104.62968C589.52728,104.62968 592.66425,101.67858 592.66425,98.03878C592.66425,94.39658 589.52728,91.44458 585.66327,91.44458C581.79523,91.44458 578.65625,94.39658 578.65625,98.03878C578.65625,101.67858 581.79327,104.62968 585.66327,104.62968zM605.30023,133.05278L599.01727,111.11658C598.95825,110.91748 598.87524,110.72768 598.77625,110.55198C598.06128,108.49758 596.01227,107.00878 593.59222,107.00878L577.68628,107.00878C575.16327,107.00878 573.04327,108.62498 572.42023,110.81758C572.37823,110.91338 572.34222,111.01488 572.31024,111.11898L566.13928,133.05377C565.72827,134.49178 566.63428,135.96977 568.16528,136.35678C569.69324,136.74178 571.26324,135.88777 571.67328,134.44977L576.52228,117.21947L578.54126,117.21947L569.74323,148.39577L578.03326,148.39577L578.03326,169.91878C578.03326,171.57378 579.45728,172.91577 581.21826,172.91577C582.97528,172.91577 584.40125,171.57477 584.40125,169.91878L584.40125,148.39577L586.93524,148.39577L586.93524,169.91878C586.93524,171.57378 588.35925,172.91577 590.12225,172.91577C591.87927,172.91577 593.30524,171.57477 593.30524,169.91878L593.30524,148.39577L601.59027,148.39577L592.76025,117.21947L594.83228,117.21947L599.76923,134.44977C600.18127,135.88777 601.75128,136.74178 603.27826,136.35678C604.80328,135.96977 605.71124,134.49077 605.30023,133.05278L605.30023,133.05278z" class="changeable" style="stroke:none;pointer-events:inherit;fill:rgb(0, 128, 128);" fill-opacity="null" stroke-opacity="null" stroke-linecap="null" stroke-linejoin="null" stroke-width="0" fill="rgb(0, 128, 128)" /><g id="svg_68" class=" changeable"><rect id="svg_69" fill="none" height="20.3653" width="46.61644" y="183.0866" x="570.95151" /><g id="svg_70" state="%7B%22bold%22%3Afalse%2C%22italic%22%3Afalse%2C%22underline%22%3Afalse%2C%22justifyleft%22%3Afalse%2C%22justifyright%22%3Afalse%2C%22justifycenter%22%3Afalse%2C%22justifyblock%22%3Afalse%2C%22font%22%3A%22Arial%22%2C%22size%22%3A%229pt%22%7D" html="%3Cbody%3E%3Cp%20class%3D%22s0_lvl0_pf%22%3E%3Cfont%20class%3D%22Apple-style-span%22%20size%3D%223%22%3E%3Cspan%20style%3D%22font-size%3A9pt%3B%22%3EJane%3C/span%3E%3C/font%3E%3C/p%3E%3C/body%3E" empty="0" expand="1" class="TextBox" display="inline"><rect id="svg_71" style="fill:none;stroke:none;" fill="none" height="100" width="46" y="183.08661" x="570.95153" /><rect fill="rgba(0, 0, 0, 0)" height="15" width="27" y="183.08661" x="570.95153" id="svg_112" /><text y="183.08661" x="570.95153" fill="rgb(0, 0, 0)" text-decoration="normal" font-style="normal" dominant-baseline="text-before-edge" xml:space="preserve" text-anchor="start" font-weight="normal" font-family="Arial, monospace" font-size="12px" id="svg_113">Jane</text></g></g><path id="svg_74" stroke-width="0" d="M652.67584,203.92422C652.67584,200.19693 655.74878,197.17862 659.54041,197.17862C663.33203,197.17862 666.4032,200.19693 666.4032,203.92422C666.4032,207.6506 663.33203,210.66891 659.54041,210.66891C655.74878,210.66891 652.67584,207.6506 652.67584,203.92422zM675.75214,223.01776L675.75214,219.6113C675.75214,216.02649 672.7973,213.12079 669.14801,213.12079L649.91022,213.12079C646.2627,213.12079 643.30609,216.02649 643.30609,219.6113L643.30609,223.01776C643.29913,223.09454 643.29572,223.17474 643.29572,223.25494L643.29572,242.87576C643.29572,244.40109 644.55261,245.63556 646.10297,245.63556C647.65332,245.63556 648.91199,244.40109 648.91199,242.87576L648.91199,223.54498L650.79565,223.54498L650.79565,245.63812L650.80957,245.63812L650.80957,276.85446C650.80957,278.88315 652.48663,280.53226 654.55261,280.53226C656.62207,280.53226 658.29736,278.88568 658.29736,276.85446L658.29736,245.63812L660.76611,245.63812L660.76611,276.85446C660.76611,278.88315 662.44489,280.53226 664.51086,280.53226C666.57861,280.53226 668.25391,278.88568 668.25391,276.85446L668.25391,245.63812L668.26605,245.63812L668.26605,223.54498L670.14972,223.54498L670.14972,242.87488C670.14972,244.39938 671.40839,245.63556 672.95874,245.63556C674.50909,245.63556 675.76605,244.39938 675.76605,242.87488L675.76605,223.25412C675.76605,223.17218 675.75909,223.09454 675.75214,223.01776L675.75214,223.01776z" class="changeable" style="stroke:none;pointer-events:inherit;fill:rgb(0, 51, 102);" fill-opacity="null" stroke-opacity="null" stroke-linecap="null" stroke-linejoin="null" fill="rgb(0, 51, 102)" /><g id="svg_75" class=" changeable"><rect id="svg_76" fill="none" height="20.3653" width="63.23288" y="285.68884" x="639.21733" /><g id="svg_77" state="%7B%22bold%22%3Afalse%2C%22italic%22%3Afalse%2C%22underline%22%3Afalse%2C%22justifyleft%22%3Afalse%2C%22justifyright%22%3Afalse%2C%22justifycenter%22%3Afalse%2C%22justifyblock%22%3Afalse%2C%22font%22%3A%22Arial%22%2C%22size%22%3A%229pt%22%7D" html="%3Cbody%3E%3Cp%20class%3D%22s0_lvl0_pf%22%3E%3Cspan%20class%3D%22s0_lvl0_cf%22%3E%3Cfont%20class%3D%22Apple-style-span%22%20size%3D%223%22%3E%3Cspan%20style%3D%22font-size%3A9pt%3B%22%3EMichael%3C/span%3E%3C/font%3E%3C/span%3E%3C/p%3E%3C/body%3E" empty="0" expand="1" class="TextBox" display="inline"><rect id="svg_78" style="fill:none;stroke:none;" fill="none" height="100" width="62" y="285.68879" x="639.21732" /><rect fill="rgba(0, 0, 0, 0)" height="15" width="42" y="285.68879" x="639.21732" id="svg_114" /><text y="285.68879" x="639.21732" fill="rgb(0, 0, 0)" text-decoration="normal" font-style="normal" dominant-baseline="text-before-edge" xml:space="preserve" text-anchor="start" font-weight="normal" font-family="Arial, monospace" font-size="12px" id="svg_115">Michael</text></g></g><rect id="svg_83" height="51.14155" width="79.6347" y="163.45121" x="280.26547" class="changeable" style="stroke:none;pointer-events:inherit;fill:rgb(255, 153, 0);" fill-opacity="null" stroke-opacity="null" stroke-linecap="null" stroke-linejoin="null" stroke-width="0" fill="rgb(255, 153, 0)" /><rect id="svg_84" height="17.85845" width="50.73516" y="151.76172" x="280.26547" class="changeable" style="stroke:none;pointer-events:inherit;fill:rgb(255, 153, 0);" fill-opacity="null" stroke-opacity="null" stroke-linecap="null" stroke-linejoin="null" stroke-width="0" fill="rgb(255, 153, 0)" /><rect id="svg_85" height="51.14155" width="79.6347" y="282.85761" x="282.77689" class="changeable" style="stroke:none;pointer-events:inherit;fill:rgb(153, 204, 0);" fill-opacity="null" stroke-opacity="null" stroke-linecap="null" stroke-linejoin="null" stroke-width="0" fill="rgb(153, 204, 0)" /><rect id="svg_86" height="17.85845" width="50.73516" y="271.16811" x="282.77689" class="changeable" style="stroke:none;pointer-events:inherit;fill:rgb(153, 204, 0);" fill-opacity="null" stroke-opacity="null" stroke-linecap="null" stroke-linejoin="null" stroke-width="0" fill="rgb(153, 204, 0)" /><rect id="svg_87" height="51.14155" width="79.6347" y="408.51971" x="284.23807" class="changeable" style="stroke:none;pointer-events:inherit;fill:rgb(204, 153, 255);" fill-opacity="null" stroke-opacity="null" stroke-linecap="null" stroke-linejoin="null" stroke-width="0" fill="rgb(204, 153, 255)" /><rect id="svg_88" height="17.85845" width="50.73516" y="396.83021" x="284.23807" class="changeable" style="stroke:none;pointer-events:inherit;fill:rgb(204, 153, 255);" fill-opacity="null" stroke-opacity="null" stroke-linecap="null" stroke-linejoin="null" stroke-width="0" fill="rgb(204, 153, 255)" /><path id="svg_89" stroke-width="0" d="M655.36566,341.74838C655.36566,338.02109 658.4386,335.00278 662.23022,335.00278C666.02185,335.00278 669.09302,338.02109 669.09302,341.74838C669.09302,345.47476 666.02185,348.49307 662.23022,348.49307C658.4386,348.49307 655.36566,345.47476 655.36566,341.74838zM678.44196,360.84192L678.44196,357.43546C678.44196,353.85065 675.48712,350.94495 671.83783,350.94495L652.60004,350.94495C648.95251,350.94495 645.99591,353.85065 645.99591,357.43546L645.99591,360.84192C645.98895,360.9187 645.98553,360.9989 645.98553,361.0791L645.98553,380.69992C645.98553,382.22525 647.24243,383.45972 648.79279,383.45972C650.34314,383.45972 651.60181,382.22525 651.60181,380.69992L651.60181,361.36914L653.48547,361.36914L653.48547,383.46228L653.49939,383.46228L653.49939,414.67862C653.49939,416.70731 655.17645,418.35641 657.24243,418.35641C659.31189,418.35641 660.98718,416.70984 660.98718,414.67862L660.98718,383.46228L663.45593,383.46228L663.45593,414.67862C663.45593,416.70731 665.1347,418.35641 667.20068,418.35641C669.26843,418.35641 670.94373,416.70984 670.94373,414.67862L670.94373,383.46228L670.95587,383.46228L670.95587,361.36914L672.83954,361.36914L672.83954,380.69904C672.83954,382.22354 674.09821,383.45972 675.64856,383.45972C677.19891,383.45972 678.45587,382.22354 678.45587,380.69904L678.45587,361.07828C678.45587,360.99634 678.44891,360.9187 678.44196,360.84192L678.44196,360.84192z" class="changeable" style="stroke:none;pointer-events:inherit;fill:rgb(51, 51, 153);" fill-opacity="null" stroke-opacity="null" stroke-linecap="null" stroke-linejoin="null" fill="rgb(51, 51, 153)" /><g id="svg_90" class=" changeable"><rect id="svg_91" fill="none" height="20.3653" width="42.15982" y="423.46829" x="647.57363" /><g id="svg_92" state="%7B%22bold%22%3Afalse%2C%22italic%22%3Afalse%2C%22underline%22%3Afalse%2C%22justifyleft%22%3Afalse%2C%22justifyright%22%3Afalse%2C%22justifycenter%22%3Afalse%2C%22justifyblock%22%3Afalse%2C%22font%22%3A%22Arial%22%2C%22size%22%3A%229pt%22%7D" html="%3Cbody%3E%3Cp%20class%3D%22s0_lvl0_pf%22%3E%3Cfont%20class%3D%22Apple-style-span%22%20size%3D%223%22%3E%3Cspan%20style%3D%22font-size%3A9pt%3B%22%3ETom%3C/span%3E%3C/font%3E%3C/p%3E%3C/body%3E" empty="0" expand="1" class="TextBox" display="inline"><rect id="svg_93" style="fill:none;stroke:none;" fill="none" height="100" width="42" y="423.46835" x="647.57363" /><rect fill="rgba(0, 0, 0, 0)" height="15" width="25" y="423.46835" x="647.57363" id="svg_116" /><text y="423.46835" x="647.57363" fill="rgb(0, 0, 0)" text-decoration="normal" font-style="normal" dominant-baseline="text-before-edge" xml:space="preserve" text-anchor="start" font-weight="normal" font-family="Arial, monospace" font-size="12px" id="svg_117">Tom</text></g></g><path id="svg_96" d="M586.75824,429.60077C590.62225,429.60077 593.75928,426.64978 593.75928,423.00977C593.75928,419.36777 590.62225,416.41577 586.75824,416.41577C582.89026,416.41577 579.75128,419.36777 579.75128,423.00977C579.75128,426.64978 582.88824,429.60077 586.75824,429.60077zM606.39526,458.02377L600.11224,436.08777C600.05328,435.88876 599.97028,435.69876 599.87128,435.52277C599.15625,433.46878 597.10724,431.97977 594.68726,431.97977L578.78125,431.97977C576.25824,431.97977 574.13824,433.59576 573.51526,435.78876C573.47327,435.88376 573.43726,435.98578 573.40527,436.08978L567.23328,458.02478C566.82324,459.46277 567.72925,460.94077 569.25928,461.32776C570.78827,461.71277 572.35828,460.85876 572.76825,459.42078L577.61725,442.18976L579.63623,442.18976L570.83826,473.36578L579.12823,473.36578L579.12823,494.88876C579.12823,496.54477 580.55225,497.88577 582.31323,497.88577C584.07025,497.88577 585.49628,496.54578 585.49628,494.88876L585.49628,473.36578L588.03027,473.36578L588.03027,494.88876C588.03027,496.54477 589.45422,497.88577 591.21722,497.88577C592.97424,497.88577 594.40027,496.54578 594.40027,494.88876L594.40027,473.36578L602.68524,473.36578L593.85522,442.18976L595.92725,442.18976L600.86426,459.42078C601.27625,460.85876 602.84625,461.71277 604.37323,461.32776C605.89825,460.94077 606.80627,459.46176 606.39526,458.02377L606.39526,458.02377z" class="changeable" style="stroke:none;pointer-events:inherit;fill:rgb(128, 0, 0);" fill-opacity="null" stroke-opacity="null" stroke-linecap="null" stroke-linejoin="null" stroke-width="0" fill="rgb(128, 0, 0)" /><g id="svg_97" class=" changeable"><rect id="svg_98" fill="none" height="21.82648" width="57.50228" y="503.40633" x="569.07934" /><g id="svg_99" state="%7B%22bold%22%3Afalse%2C%22italic%22%3Afalse%2C%22underline%22%3Afalse%2C%22justifyleft%22%3Afalse%2C%22justifyright%22%3Afalse%2C%22justifycenter%22%3Afalse%2C%22justifyblock%22%3Afalse%2C%22font%22%3A%22Arial%22%2C%22size%22%3A%229pt%22%7D" html="%3Cbody%3E%3Cp%20class%3D%22s0_lvl0_pf%22%3E%3Cspan%20style%3D%22font-size%3A9pt%3B%22%3ERachel%3C/span%3E%3C/p%3E%3C/body%3E" empty="0" expand="1" class="TextBox" display="inline"><rect id="svg_100" style="fill:none;stroke:none;" fill="none" height="100" width="57" y="503.40633" x="569.07949" /><rect fill="rgba(0, 0, 0, 0)" height="15" width="39" y="503.40633" x="569.07949" id="svg_118" /><text y="503.40633" x="569.07949" fill="rgb(0, 0, 0)" text-decoration="normal" font-style="normal" dominant-baseline="text-before-edge" xml:space="preserve" text-anchor="start" font-weight="normal" font-family="Arial, monospace" font-size="12px" id="svg_119">Rachel</text></g></g><g id="svg_104" class=" changeable"><rect id="svg_105" style="pointer-events:inherit;fill:rgba(0, 0, 0, 0);" fill="rgba(0, 0, 0, 0)" height="72" width="120" y="160.84843" x="148.59028" /><g id="svg_106" html="%3Cbody%3E%3Cp%20class%3D%22s0_lvl0_pf%22%20style%3D%22text-align%3A%20right%3B%22%3E%3Cspan%20class%3D%22s0_lvl0_cf%22%3E%3Cfont%20class%3D%22Apple-style-span%22%20size%3D%222%22%3E%3Cspan%20style%3D%22color%3A%20rgb%2851%2C%20153%2C%20102%29%3B%22%3E%3Cspan%20style%3D%22color%3A%20rgb%28128%2C%200%2C%200%29%3B%22%3E%3Cspan%20style%3D%22font-size%3A%208pt%3B%22%3E%3Cspan%20style%3D%22color%3A%20rgb%28150%2C%20150%2C%20150%29%3B%22%3ECreate%2C%26nbsp%3B%3C/span%3E%3C/span%3E%3C/span%3E%3C/span%3E%3C/font%3E%3C/span%3E%3Cspan%20class%3D%22s0_lvl0_cf%22%3E%3Cspan%20style%3D%22font-size%3A%208pt%3B%22%3E%3Cspan%20style%3D%22color%3A%20rgb%28128%2C%200%2C%200%29%3B%22%3E%3Cspan%20style%3D%22color%3A%20rgb%28150%2C%20150%2C%20150%29%3B%22%3EEdit%2C%20Import%2C%20Upload%20and%3C/span%3E%3C/span%3E%3C/span%3E%3Cspan%20style%3D%22font-size%3A%209pt%3B%22%3E%3Cspan%20style%3D%22font-size%3A%2010pt%3B%22%3E%3Cspan%20style%3D%22color%3A%20rgb%2851%2C%20153%2C%20102%29%3B%22%3E%3Cspan%20style%3D%22color%3A%20rgb%28128%2C%200%2C%200%29%3B%22%3E%3Cspan%20style%3D%22font-size%3A%208pt%3B%22%3E%3Cspan%20style%3D%22color%3A%20rgb%28150%2C%20150%2C%20150%29%3B%22%3E%26nbsp%3B%20Share%20files%3C/span%3E%3C/span%3E%3C/span%3E%3C/span%3E%3C/span%3E%3C/span%3E%3C/span%3E%3Cspan%20class%3D%22s0_lvl0_cf%22%3E%3Cspan%20style%3D%22font-size%3A%208pt%3B%22%3E%3Cspan%20style%3D%22color%3A%20rgb%28128%2C%200%2C%200%29%3B%22%3E%3Cspan%20style%3D%22color%3A%20rgb%28150%2C%20150%2C%20150%29%3B%22%3Ewith%20others%3C/span%3E%3C/span%3E%3C/span%3E%3C/span%3E%3C/p%3E%3Cp%20class%3D%22s0_lvl0_pf%22%3E%26nbsp%3B%3C/p%3E%3C/body%3E" empty="0" expand="1" class="TextBox" display="inline"><rect id="svg_107" style="fill:none;stroke:none;" fill="none" height="72" width="120" y="160.84844" x="148.58869" /><rect id="svg_128" x="169.58869" y="160.84844" width="39" height="14" fill="transparent" /><text id="svg_129" font-size="10.6667px" font-family="Arial,monospace" font-weight="400" text-anchor="start" xml:space="preserve" dominant-baseline="text-before-edge" font-style="normal" text-decoration="normal" fill="rgb(150, 150, 150)" x="169.58869" y="160.84844">Create,</text><rect id="svg_132" x="209.00536" y="160.84844" width="22" height="14" fill="transparent" /><text id="svg_133" font-size="10.6667px" font-family="Arial,monospace" font-weight="400" text-anchor="start" xml:space="preserve" dominant-baseline="text-before-edge" font-style="normal" text-decoration="normal" fill="rgb(150, 150, 150)" x="209.00536" y="160.84844">Edit,</text><rect id="svg_134" x="233.75536" y="160.84844" width="35" height="14" fill="transparent" /><text id="svg_135" font-size="10.6667px" font-family="Arial,monospace" font-weight="400" text-anchor="start" xml:space="preserve" dominant-baseline="text-before-edge" font-style="normal" text-decoration="normal" fill="rgb(150, 150, 150)" x="233.75536" y="160.84844">Import,</text><rect id="svg_136" x="174.17202" y="174.59844" width="37" height="14" fill="transparent" /><text id="svg_141" font-size="10.6667px" font-family="Arial,monospace" font-weight="400" text-anchor="start" xml:space="preserve" dominant-baseline="text-before-edge" font-style="normal" text-decoration="normal" fill="rgb(150, 150, 150)" x="174.17202" y="174.59844">Upload</text><rect id="svg_142" x="213.58869" y="174.59844" width="19" height="14" fill="transparent" /><text id="svg_143" font-size="10.6667px" font-family="Arial,monospace" font-weight="400" text-anchor="start" xml:space="preserve" dominant-baseline="text-before-edge" font-style="normal" text-decoration="normal" fill="rgb(150, 150, 150)" x="213.58869" y="174.59844">and</text><rect id="svg_144" x="238.33869" y="174.59844" width="30" height="14" fill="transparent" /><text id="svg_145" font-size="10.6667px" font-family="Arial,monospace" font-weight="400" text-anchor="start" xml:space="preserve" dominant-baseline="text-before-edge" font-style="normal" text-decoration="normal" fill="rgb(150, 150, 150)" x="238.33869" y="174.59844">Share</text><rect id="svg_146" x="192.50536" y="188.34844" width="21" height="14" fill="transparent" /><text id="svg_147" font-size="10.6667px" font-family="Arial,monospace" font-weight="400" text-anchor="start" xml:space="preserve" dominant-baseline="text-before-edge" font-style="normal" text-decoration="normal" fill="rgb(150, 150, 150)" x="192.50536" y="188.34844">files</text><rect id="svg_148" x="213.58869" y="188.34844" width="20" height="14" fill="transparent" /><text id="svg_149" font-size="10.6667px" font-family="Arial,monospace" font-weight="400" text-anchor="start" xml:space="preserve" dominant-baseline="text-before-edge" font-style="normal" text-decoration="normal" fill="rgb(150, 150, 150)" x="213.58869" y="188.34844">with</text><rect id="svg_150" x="236.50536" y="188.34844" width="32" height="14" fill="transparent" /><text id="svg_151" font-size="10.6667px" font-family="Arial,monospace" font-weight="400" text-anchor="start" xml:space="preserve" dominant-baseline="text-before-edge" font-style="normal" text-decoration="normal" fill="rgb(150, 150, 150)" x="236.50536" y="188.34844">others</text></g></g><g id="svg_124" class=" changeable"><rect id="svg_125" style="pointer-events:inherit;fill:rgba(0, 0, 0, 0);" fill="rgba(0, 0, 0, 0)" height="59" width="129" y="275.04084" x="142.96952" /><g id="svg_126" html="%3Cbody%3E%3Cp%20class%3D%22s0_lvl0_pf%22%20style%3D%22text-align%3A%20right%3B%22%3E%3Cspan%20class%3D%22s0_lvl0_cf%22%3E%3Cspan%20style%3D%22font-size%3A%209pt%3B%22%3E%3Cspan%20style%3D%22font-size%3A%208pt%3B%22%3E%3Cspan%20style%3D%22color%3A%20rgb%28128%2C%200%2C%200%29%3B%22%3E%3Cspan%20style%3D%22color%3A%20rgb%28150%2C%20150%2C%20150%29%3B%22%3ERead%2C%26nbsp%3B%3C/span%3E%3C/span%3E%3C/span%3E%3C/span%3E%3C/span%3E%3Cspan%20class%3D%22s0_lvl0_cf%22%3E%3Cspan%20style%3D%22font-size%3A%208pt%3B%22%3E%3Cspan%20style%3D%22color%3A%20rgb%28128%2C%200%2C%200%29%3B%22%3E%3Cspan%20style%3D%22color%3A%20rgb%28150%2C%20150%2C%20150%29%3B%22%3EEdit%26nbsp%3B%3C/span%3E%3C/span%3E%3C/span%3E%3C/span%3E%3Cspan%20class%3D%22s0_lvl0_cf%22%3E%3Cspan%20style%3D%22font-size%3A%208pt%3B%22%3E%3Cspan%20style%3D%22color%3A%20rgb%28128%2C%200%2C%200%29%3B%22%3E%3Cspan%20style%3D%22color%3A%20rgb%28150%2C%20150%2C%20150%29%3B%22%3Edocuments%20shared%20with%20you%3C/span%3E%3C/span%3E%3C/span%3E%3C/span%3E%3C/p%3E%3Cp%20class%3D%22s0_lvl0_pf%22%3E%26nbsp%3B%3C/p%3E%3C/body%3E" empty="0" expand="1" class="TextBox" display="inline"><rect id="svg_127" style="fill:none;stroke:none;" fill="none" height="59" width="129" y="275.04074" x="142.96808" /><rect id="svg_152" x="160.13475" y="275.04074" width="33" height="14" fill="transparent" /><text id="svg_153" font-size="10.6667px" font-family="Arial,monospace" font-weight="400" text-anchor="start" xml:space="preserve" dominant-baseline="text-before-edge" font-style="normal" text-decoration="normal" fill="rgb(150, 150, 150)" x="160.13475" y="275.04074">Read,</text><rect id="svg_154" x="193.13475" y="275.04074" width="22" height="14" fill="transparent" /><text id="svg_155" font-size="10.6667px" font-family="Arial,monospace" font-weight="400" text-anchor="start" xml:space="preserve" dominant-baseline="text-before-edge" font-style="normal" text-decoration="normal" fill="rgb(150, 150, 150)" x="193.13475" y="275.04074">Edit</text><rect id="svg_160" x="215.13475" y="275.04074" width="57" height="14" fill="transparent" /><text id="svg_161" font-size="10.6667px" font-family="Arial,monospace" font-weight="400" text-anchor="start" xml:space="preserve" dominant-baseline="text-before-edge" font-style="normal" text-decoration="normal" fill="rgb(150, 150, 150)" x="215.13475" y="275.04074">documents</text><rect id="svg_166" x="193.13475" y="288.79074" width="36" height="14" fill="transparent" /><text id="svg_167" font-size="10.6667px" font-family="Arial,monospace" font-weight="400" text-anchor="start" xml:space="preserve" dominant-baseline="text-before-edge" font-style="normal" text-decoration="normal" fill="rgb(150, 150, 150)" x="193.13475" y="288.79074">shared</text><rect id="svg_168" x="231.63475" y="288.79074" width="20" height="14" fill="transparent" /><text id="svg_169" font-size="10.6667px" font-family="Arial,monospace" font-weight="400" text-anchor="start" xml:space="preserve" dominant-baseline="text-before-edge" font-style="normal" text-decoration="normal" fill="rgb(150, 150, 150)" x="231.63475" y="288.79074">with</text><rect id="svg_170" x="254.55141" y="288.79074" width="17" height="14" fill="transparent" /><text id="svg_171" font-size="10.6667px" font-family="Arial,monospace" font-weight="400" text-anchor="start" xml:space="preserve" dominant-baseline="text-before-edge" font-style="normal" text-decoration="normal" fill="rgb(150, 150, 150)" x="254.55141" y="288.79074">you</text></g></g><line stroke-width="3" stroke-dasharray="2,2" id="svg_137" y2="274.53542" x2="388.90093" y1="167.83477" x1="543.27917" class="changeable" style="stroke:rgb(150, 150, 150);" fill-opacity="null" stroke-opacity="null" stroke-linecap="null" stroke-linejoin="null" stroke="rgb(150, 150, 150)" fill="none" /><line id="svg_138" y2="295.75024" x2="396.25146" y1="254.04482" x1="619.9915" class="changeable" fill-opacity="null" stroke-opacity="null" stroke-linecap="null" stroke-linejoin="null" stroke-dasharray="2,2" stroke-width="3" stroke="rgb(150, 150, 150)" fill="none" style="stroke:rgb(150, 150, 150);" /><line id="svg_139" y2="318.20326" x2="397.07126" y1="368.48042" x1="610.44919" class="changeable" fill-opacity="null" stroke-opacity="null" stroke-linecap="null" stroke-linejoin="null" stroke-dasharray="2,2" stroke-width="3" stroke="rgb(150, 150, 150)" fill="none" style="stroke:rgb(150, 150, 150);" /><line id="svg_140" y2="336.9141" x2="389.54231" y1="441.80737" x1="546.20155" class="changeable" fill-opacity="null" stroke-opacity="null" stroke-linecap="null" stroke-linejoin="null" stroke-dasharray="2,2" stroke-width="3" stroke="rgb(150, 150, 150)" fill="none" style="stroke:rgb(150, 150, 150);" /><g class=" changeable" id="svg_156"><rect fill="none" height="37.9843" width="53.8991" y="369.68504" x="66.36658" id="svg_157" /><g state="%7B%22bold%22%3Afalse%2C%22italic%22%3Afalse%2C%22underline%22%3Afalse%2C%22justifyleft%22%3Afalse%2C%22justifyright%22%3Afalse%2C%22justifycenter%22%3Afalse%2C%22justifyblock%22%3Afalse%2C%22font%22%3A%22Arial%22%2C%22size%22%3A%2212pt%22%7D" html="%3Cbody%3E%3Cp%20class%3D%22s0_lvl0_pf%22%3E%3Cspan%20style%3D%22font-size%3A12pt%3B%22%3EYou%3C/span%3E%3C/p%3E%3C/body%3E" empty="0" expand="1" class="TextBox" display="inline" id="svg_158"><rect style="fill:none;stroke:none;" fill="none" height="100" width="53" y="369.68504" x="66.36672" id="svg_159" /><rect id="svg_172" x="66.36672" y="369.68504" width="26" height="18" fill="rgba(0, 0, 0, 0)" /><text id="svg_173" font-size="16px" font-family="Arial, monospace" font-weight="normal" text-anchor="start" xml:space="preserve" dominant-baseline="text-before-edge" font-style="normal" text-decoration="normal" fill="rgb(0, 0, 0)" x="66.36672" y="369.68504">You</text></g></g><g class=" changeable" id="svg_162"><rect style="pointer-events:inherit;fill:rgba(0, 0, 0, 0);" fill="rgba(0, 0, 0, 0)" height="72" width="129" y="413.41297" x="144.90752" id="svg_163" /><g html="%3Cbody%3E%3Cp%20class%3D%22s0_lvl0_pf%22%20style%3D%22text-align%3A%20right%3B%22%3E%3Cspan%20class%3D%22s0_lvl0_cf%22%3E%3Cspan%20style%3D%22font-size%3A%209pt%3B%22%3E%3Cspan%20style%3D%22font-size%3A%208pt%3B%22%3E%3Cspan%20style%3D%22color%3A%20rgb%28128%2C%200%2C%200%29%3B%22%3E%3Cspan%20style%3D%22color%3A%20rgb%28150%2C%20150%2C%20150%29%3B%22%3ERead%2C%26nbsp%3B%3C/span%3E%3C/span%3E%3C/span%3E%3C/span%3E%3C/span%3E%3Cspan%20class%3D%22s0_lvl0_cf%22%3E%3Cspan%20style%3D%22font-size%3A%208pt%3B%22%3E%3Cspan%20style%3D%22color%3A%20rgb%28128%2C%200%2C%200%29%3B%22%3E%3Cspan%20style%3D%22color%3A%20rgb%28150%2C%20150%2C%20150%29%3B%22%3EEdit%26nbsp%3B%3C/span%3E%3C/span%3E%3C/span%3E%3C/span%3E%3Cspan%20class%3D%22s0_lvl0_cf%22%3E%3Cspan%20style%3D%22font-size%3A%208pt%3B%22%3E%3Cspan%20style%3D%22color%3A%20rgb%28128%2C%200%2C%200%29%3B%22%3E%3Cspan%20style%3D%22color%3A%20rgb%28150%2C%20150%2C%20150%29%3B%22%3Edocuments%20%3C/span%3E%3C/span%3E%3C/span%3E%3C/span%3E%3C/p%3E%3Cp%20class%3D%22s0_lvl0_pf%22%20style%3D%22text-align%3A%20right%3B%22%3E%3Cspan%20class%3D%22s0_lvl0_cf%22%3E%3Cspan%20style%3D%22font-size%3A%208pt%3B%22%3E%3Cspan%20style%3D%22color%3A%20rgb%28128%2C%200%2C%200%29%3B%22%3E%3Cspan%20style%3D%22color%3A%20rgb%28150%2C%20150%2C%20150%29%3B%22%3Eavailable%20to%20all%26nbsp%3B%20users%3C/span%3E%3C/span%3E%3C/span%3E%3C/span%3E%3C/p%3E%3Cp%20class%3D%22s0_lvl0_pf%22%20style%3D%22text-align%3A%20right%3B%22%3E%3Cspan%20class%3D%22s0_lvl0_cf%22%3E%3Cspan%20style%3D%22font-size%3A%208pt%3B%22%3E%3Cspan%20style%3D%22color%3A%20rgb%28150%2C%20150%2C%20150%29%3B%22%3ESee%20our%20examples%3C/span%3E%3C/span%3E%3C/span%3E%3C/p%3E%3Cp%20class%3D%22s0_lvl0_pf%22%20style%3D%22text-align%3A%20right%3B%22%3E%26nbsp%3B%3C/p%3E%3C/body%3E" empty="0" expand="1" class="TextBox" display="inline" id="svg_164"><rect style="fill:none;stroke:none;" fill="none" height="72" width="129" y="413.4129" x="144.90608" id="svg_165" /><rect fill="transparent" height="14" width="33" y="413.4129" x="162.07275" /><text y="413.4129" x="162.07275" background="transparent" fill="rgb(150, 150, 150)" text-decoration="normal" font-style="normal" dominant-baseline="text-before-edge" xml:space="preserve" text-anchor="start" font-weight="400" font-family="Arial,monospace" font-size="10.6667px">Read,</text><rect fill="transparent" height="14" width="22" y="413.4129" x="195.07275" /><text y="413.4129" x="195.07275" background="transparent" fill="rgb(150, 150, 150)" text-decoration="normal" font-style="normal" dominant-baseline="text-before-edge" xml:space="preserve" text-anchor="start" font-weight="400" font-family="Arial,monospace" font-size="10.6667px">Edit</text><rect fill="transparent" height="14" width="57" y="413.4129" x="217.07275" /><text y="413.4129" x="217.07275" background="transparent" fill="rgb(150, 150, 150)" text-decoration="normal" font-style="normal" dominant-baseline="text-before-edge" xml:space="preserve" text-anchor="start" font-weight="400" font-family="Arial,monospace" font-size="10.6667px">documents</text><rect fill="transparent" height="14" width="45" y="427.1629" x="167.57275" /><text y="427.1629" x="167.57275" background="transparent" fill="rgb(150, 150, 150)" text-decoration="normal" font-style="normal" dominant-baseline="text-before-edge" xml:space="preserve" text-anchor="start" font-weight="400" font-family="Arial,monospace" font-size="10.6667px">available</text><rect fill="transparent" height="14" width="9" y="427.1629" x="215.23941" /><text y="427.1629" x="215.23941" background="transparent" fill="rgb(150, 150, 150)" text-decoration="normal" font-style="normal" dominant-baseline="text-before-edge" xml:space="preserve" text-anchor="start" font-weight="400" font-family="Arial,monospace" font-size="10.6667px">to</text><rect fill="transparent" height="14" width="15" y="427.1629" x="227.15608" /><text y="427.1629" x="227.15608" background="transparent" fill="rgb(150, 150, 150)" text-decoration="normal" font-style="normal" dominant-baseline="text-before-edge" xml:space="preserve" text-anchor="start" font-weight="400" font-family="Arial,monospace" font-size="10.6667px">all</text><rect fill="transparent" height="14" width="29" y="427.1629" x="244.57275" /><text y="427.1629" x="244.57275" background="transparent" fill="rgb(150, 150, 150)" text-decoration="normal" font-style="normal" dominant-baseline="text-before-edge" xml:space="preserve" text-anchor="start" font-weight="400" font-family="Arial,monospace" font-size="10.6667px">users</text><rect fill="transparent" height="14" width="20" y="440.9129" x="182.23941" /><text y="440.9129" x="182.23941" background="transparent" fill="rgb(150, 150, 150)" text-decoration="normal" font-style="normal" dominant-baseline="text-before-edge" xml:space="preserve" text-anchor="start" font-weight="400" font-family="Arial,monospace" font-size="10.6667px">See</text><rect fill="transparent" height="14" width="17" y="440.9129" x="205.15608" /><text y="440.9129" x="205.15608" background="transparent" fill="rgb(150, 150, 150)" text-decoration="normal" font-style="normal" dominant-baseline="text-before-edge" xml:space="preserve" text-anchor="start" font-weight="400" font-family="Arial,monospace" font-size="10.6667px">our</text><rect fill="transparent" height="14" width="50" y="440.9129" x="224.40608" /><text y="440.9129" x="224.40608" background="transparent" fill="rgb(150, 150, 150)" text-decoration="normal" font-style="normal" dominant-baseline="text-before-edge" xml:space="preserve" text-anchor="start" font-weight="400" font-family="Arial,monospace" font-size="10.6667px">examples</text></g></g><line fill="none" stroke="rgb(255, 153, 0)" stroke-linejoin="null" stroke-linecap="null" stroke-opacity="null" fill-opacity="null" style="stroke:rgb(255, 153, 0);" class="changeable" x1="372.84165" y1="198.439" x2="617.8029" y2="236.42349" id="svg_178" stroke-width="2" /><path fill="rgb(255,153,0)" stroke="rgba(0, 0, 0, 0)" stroke-width="2" stroke-linejoin="null" stroke-linecap="null" stroke-opacity="null" fill-opacity="null" style="fill:rgb(255,153,0);stroke:rgba(0, 0, 0, 0);" class="changeable" d="M611.875,241.716L611.875,230.478L623.112,241.716L611.875,241.716z" id="svg_179" transform="rotate(-120.24, 617.493, 236.097)" /><path fill="rgb(128, 128, 128)" stroke="rgba(0,0,0,0)" stroke-width="2" stroke-linejoin="null" stroke-linecap="null" stroke-opacity="null" fill-opacity="null" style="stroke:rgba(0,0,0,0);fill:rgb(128, 128, 128);" class="changeable" d="M383.81,279.901L383.81,268.64001L395.07199,279.901L383.81,279.901z" transform="rotate(4.50606, 389.441, 274.27)" id="svg_180" /><path fill="rgb(128, 128, 128)" stroke="rgba(0,0,0,0)" stroke-width="2" stroke-linejoin="null" stroke-linecap="null" stroke-opacity="null" fill-opacity="null" style="stroke:rgba(0,0,0,0);fill:rgb(128, 128, 128);" class="changeable" d="M390.27399,301.09399L390.27399,289.832L401.53601,301.09399L390.27399,301.09399z" transform="rotate(33.9217, 395.905, 295.463)" id="svg_181" /><path fill="rgb(128, 128, 128)" stroke="rgba(0,0,0,0)" stroke-width="2" stroke-linejoin="null" stroke-linecap="null" stroke-opacity="null" fill-opacity="null" style="stroke:rgba(0,0,0,0);fill:rgb(128, 128, 128);" class="changeable" d="M390.745,324.04501L390.745,312.78299L402.00699,324.04501L390.745,324.04501z" transform="rotate(62.7237, 396.376, 318.414)" id="svg_182" /><path fill="rgb(128, 128, 128)" stroke="rgba(0,0,0,0)" stroke-width="2" stroke-linejoin="null" stroke-linecap="null" stroke-opacity="null" fill-opacity="null" style="stroke:rgba(0,0,0,0);fill:rgb(128, 128, 128);" class="changeable" d="M385.34799,344.229L385.34799,332.96799L396.60999,344.229L385.34799,344.229z" transform="rotate(84.3983, 390.979, 338.598)" id="svg_183" /><line fill="none" stroke="rgb(255, 153, 0)" stroke-linejoin="null" stroke-linecap="null" stroke-opacity="null" fill-opacity="null" style="stroke:rgb(255, 153, 0);" class="changeable" x1="145.54708" y1="267.26845" x2="230.04322" y2="219.98162" stroke-width="2" id="svg_184" /><line fill="none" stroke="rgb(204, 153, 255)" stroke-linejoin="null" stroke-linecap="null" stroke-opacity="null" fill-opacity="null" style="stroke:rgb(204, 153, 255);" class="changeable" x1="247.70985" y1="401.21419" x2="150.03547" y2="365.55526" stroke-width="2" id="svg_185" /><line fill="none" stroke="rgb(153, 204, 0)" stroke-linejoin="null" stroke-linecap="null" stroke-opacity="null" fill-opacity="null" style="stroke:rgb(153, 204, 0);" class="changeable" x1="148.48507" y1="323.69479" x2="239.18275" y2="322.9196" stroke-width="2" id="svg_186" /><path fill="rgb(255,153,0)" stroke="rgba(0, 0, 0, 0)" stroke-width="2" stroke-linejoin="null" stroke-linecap="null" stroke-opacity="null" fill-opacity="null" style="fill:rgb(255,153,0);stroke:rgba(0, 0, 0, 0);" class="changeable" d="M223.62199,225.789L223.62199,214.55099L234.85899,225.789L223.62199,225.789z" transform="rotate(-164.214, 229.24, 220.17)" id="svg_187" /><path fill="rgb(255,153,0)" stroke="rgba(0, 0, 0, 0)" stroke-width="2" stroke-linejoin="null" stroke-linecap="null" stroke-opacity="null" fill-opacity="null" style="fill:rgb(255,153,0);stroke:rgba(0, 0, 0, 0);" class="changeable" d="M141.099,271.90399L141.099,260.66699L152.336,271.90399L141.099,271.90399z" id="svg_188" transform="rotate(8.48067, 146.717, 266.285)" /><path fill="rgb(153, 204, 0)" stroke="rgba(0,0,0,0)" stroke-width="2" stroke-linejoin="null" stroke-linecap="null" stroke-opacity="null" fill-opacity="null" style="stroke:rgba(0,0,0,0);fill:rgb(153, 204, 0);" class="changeable" d="M144.804,329.09698L144.804,317.85999L156.041,329.09698L144.804,329.09698z" transform="rotate(45, 150.423, 323.479)" id="svg_189" /><path fill="rgb(153, 204, 0)" stroke="rgba(0,0,0,0)" stroke-width="2" stroke-linejoin="null" stroke-linecap="null" stroke-opacity="null" fill-opacity="null" style="stroke:rgba(0,0,0,0);fill:rgb(153, 204, 0);" class="changeable" d="M230.689,328.93701L230.689,317.69901L241.92599,328.93701L230.689,328.93701z" id="svg_190" transform="rotate(-135, 236.308, 323.318)" /><path fill="rgb(204, 153, 255)" stroke="rgba(0,0,0,0)" stroke-width="2" stroke-linejoin="null" stroke-linecap="null" stroke-opacity="null" fill-opacity="null" style="stroke:rgba(0,0,0,0);fill:rgb(204, 153, 255);" class="changeable" d="M145.418,371.57199L145.418,360.33499L156.655,371.57199L145.418,371.57199z" transform="rotate(65.6412, 151.036, 365.954)" id="svg_192" /><path fill="rgb(204, 153, 255)" stroke="rgba(0,0,0,0)" stroke-width="2" stroke-linejoin="null" stroke-linecap="null" stroke-opacity="null" fill-opacity="null" style="stroke:rgba(0,0,0,0);fill:rgb(204, 153, 255);" class="changeable" d="M240.095,405.784L240.095,394.547L251.33299,405.784L240.095,405.784z" id="svg_193" transform="rotate(-108.958, 245.714, 400.166)" /><line fill="none" stroke="rgb(204, 153, 255)" stroke-width="2" stroke-dasharray="null" stroke-linejoin="null" stroke-linecap="null" stroke-opacity="null" fill-opacity="null" style="stroke:rgb(204, 153, 255);pointer-events:inherit;" class="changeable" x1="375.16725" y1="435.6483" x2="436.40756" y2="435.6483" id="svg_195" /><line fill="none" stroke="rgb(204, 153, 255)" stroke-width="2" stroke-dasharray="null" stroke-linejoin="null" stroke-linecap="null" stroke-opacity="null" fill-opacity="null" class="changeable" x1="434.85717" y1="435.6483" x2="434.85717" y2="538.7753" id="svg_196" /><line fill="none" stroke="rgb(204, 153, 255)" stroke-width="2" stroke-dasharray="null" stroke-linejoin="null" stroke-linecap="null" stroke-opacity="null" fill-opacity="null" class="changeable" x1="434.85717" y1="537.19869" x2="742.64425" y2="537.19869" id="svg_197" /><line fill="none" stroke="rgb(204, 153, 255)" stroke-width="2" stroke-dasharray="null" stroke-linejoin="null" stroke-linecap="null" stroke-opacity="null" fill-opacity="null" class="changeable" x1="741.83391" y1="536.42349" x2="741.83391" y2="126.7796" id="svg_198" /><line fill="none" stroke="rgb(204, 153, 255)" stroke-width="2" stroke-dasharray="null" stroke-linejoin="null" stroke-linecap="null" stroke-opacity="null" fill-opacity="null" class="changeable" x1="741.05872" y1="128.67156" x2="626.30647" y2="128.67156" id="svg_199" /><line fill="none" stroke="rgb(204, 153, 255)" stroke-dasharray="null" stroke-linejoin="null" stroke-linecap="null" stroke-opacity="null" fill-opacity="null" class="changeable" x1="741.97196" y1="238.11193" x2="691.52721" y2="238.11193" id="svg_200" stroke-width="2" /><line fill="none" stroke="rgb(204, 153, 255)" stroke-width="2" stroke-dasharray="null" stroke-linejoin="null" stroke-linecap="null" stroke-opacity="null" fill-opacity="null" class="changeable" x1="742.22151" y1="383.32272" x2="691.77676" y2="383.32272" id="svg_201" /><line fill="none" stroke="rgb(204, 153, 255)" stroke-width="2" stroke-dasharray="null" stroke-linejoin="null" stroke-linecap="null" stroke-opacity="null" fill-opacity="null" class="changeable" x1="741.44632" y1="467.04364" x2="619.68377" y2="467.04364" id="svg_202" /><path fill="rgb(204, 153, 255)" stroke="rgba(0,0,0,0)" stroke-width="2" stroke-linejoin="null" stroke-linecap="null" stroke-opacity="null" fill-opacity="null" style="stroke:rgba(0,0,0,0);fill:rgb(204, 153, 255);" class="changeable" d="M374.237,441.25L374.237,430.013L385.474,441.25L374.237,441.25z" transform="rotate(45, 379.855, 435.631)" id="svg_203" /><path fill="rgb(204,153,255)" stroke-width="0" stroke-linejoin="null" stroke-linecap="null" stroke-opacity="null" fill-opacity="null" style="stroke:none;fill:rgb(204,153,255);pointer-events:inherit;" class="changeable" d="M618.26202,472.87201L618.26202,461.63501L629.49902,472.87201L618.26202,472.87201z" transform="rotate(45, 623.88, 467.253)" id="svg_204" /><path fill="rgb(204, 153, 255)" stroke="rgba(0,0,0,0)" stroke-width="2" stroke-linejoin="null" stroke-linecap="null" stroke-opacity="null" fill-opacity="null" style="stroke:rgba(0,0,0,0);fill:rgb(204, 153, 255);" class="changeable" d="M688.64398,388.98999L688.64398,377.75201L699.88098,388.98999L688.64398,388.98999z" transform="rotate(45, 694.262, 383.371)" id="svg_205" /><path fill="rgb(204, 153, 255)" stroke="rgba(0,0,0,0)" stroke-width="2" stroke-linejoin="null" stroke-linecap="null" stroke-opacity="null" fill-opacity="null" style="stroke:rgba(0,0,0,0);fill:rgb(204, 153, 255);" class="changeable" d="M690.03302,243.092L690.03302,231.855L701.27002,243.092L690.03302,243.092z" transform="rotate(45, 695.651, 237.473)" id="svg_206" /><path fill="rgb(204, 153, 255)" stroke="rgba(0,0,0,0)" stroke-width="2" stroke-linejoin="null" stroke-linecap="null" stroke-opacity="null" fill-opacity="null" style="stroke:rgba(0,0,0,0);fill:rgb(204, 153, 255);" class="changeable" d="M623.20599,134.403L623.20599,123.166L634.44299,134.403L623.20599,134.403z" transform="rotate(45, 628.824, 128.784)" id="svg_207" /><g id="svg_208" class=" changeable"><rect id="svg_211" x="75.80047" y="22.83112" width="674.83896" height="55.2511" fill="none" /><g display="inline" id="svg_209" class="TextBox" expand="1" empty="0" html="%3Cbody%3E%3Cp%20class%3D%22s0_lvl0_pf%22%3E%3Cspan%20class%3D%22s0_lvl0_cf%22%3E%3Cspan%20style%3D%22font-weight%3Abold%3B%22%3EMake%20your%20work%20creative%20with%20Teamlab%20Documents%3C/span%3E%3C/span%3E%3C/p%3E%3C/body%3E" state="%7B%22bold%22%3Atrue%2C%22italic%22%3Afalse%2C%22underline%22%3Afalse%2C%22justifyleft%22%3Afalse%2C%22justifyright%22%3Afalse%2C%22justifycenter%22%3Afalse%2C%22justifyblock%22%3Afalse%2C%22font%22%3A%22Arial%22%2C%22size%22%3A%2220pt%22%7D"><rect id="svg_210" x="75.80048" y="22.83113" width="673" height="100" fill="none" style="fill:none;stroke:none;" /><rect fill="rgba(0, 0, 0, 0)" height="32" width="66" y="22.83113" x="75.80048" id="svg_15" /><text y="22.83113" x="75.80048" fill="rgb(0, 0, 0)" text-decoration="normal" font-style="normal" dominant-baseline="text-before-edge" xml:space="preserve" text-anchor="start" font-weight="bold" font-family="Arial, monospace" font-size="27px" id="svg_16">Make</text><rect fill="rgba(0, 0, 0, 0)" height="32" width="60" y="22.83113" x="149.80048" id="svg_17" /><text y="22.83113" x="149.80048" fill="rgb(0, 0, 0)" text-decoration="normal" font-style="normal" dominant-baseline="text-before-edge" xml:space="preserve" text-anchor="start" font-weight="bold" font-family="Arial, monospace" font-size="27px" id="svg_18">your</text><rect fill="rgba(0, 0, 0, 0)" height="32" width="64" y="22.83113" x="217.80048" id="svg_19" /><text y="22.83113" x="217.80048" fill="rgb(0, 0, 0)" text-decoration="normal" font-style="normal" dominant-baseline="text-before-edge" xml:space="preserve" text-anchor="start" font-weight="bold" font-family="Arial, monospace" font-size="27px" id="svg_20">work</text><rect fill="rgba(0, 0, 0, 0)" height="32" width="103" y="22.83113" x="289.80048" id="svg_21" /><text y="22.83113" x="289.80048" fill="rgb(0, 0, 0)" text-decoration="normal" font-style="normal" dominant-baseline="text-before-edge" xml:space="preserve" text-anchor="start" font-weight="bold" font-family="Arial, monospace" font-size="27px" id="svg_22">creative</text><rect fill="rgba(0, 0, 0, 0)" height="32" width="55" y="22.83113" x="400.80048" id="svg_23" /><text y="22.83113" x="400.80048" fill="rgb(0, 0, 0)" text-decoration="normal" font-style="normal" dominant-baseline="text-before-edge" xml:space="preserve" text-anchor="start" font-weight="bold" font-family="Arial, monospace" font-size="27px" id="svg_24">with</text><rect fill="rgba(0, 0, 0, 0)" height="32" width="114" y="22.83113" x="463.80048" id="svg_25" /><text y="22.83113" x="463.80048" fill="rgb(0, 0, 0)" text-decoration="normal" font-style="normal" dominant-baseline="text-before-edge" xml:space="preserve" text-anchor="start" font-weight="bold" font-family="Arial, monospace" font-size="27px" id="svg_26">Teamlab</text><rect fill="rgba(0, 0, 0, 0)" height="32" width="151" y="22.83113" x="585.80048" id="svg_27" /><text y="22.83113" x="585.80048" fill="rgb(0, 0, 0)" text-decoration="normal" font-style="normal" dominant-baseline="text-before-edge" xml:space="preserve" text-anchor="start" font-weight="bold" font-family="Arial, monospace" font-size="27px" id="svg_28">Documents</text></g></g></g></svg>